<svg xmlns="http://www.w3.org/2000/svg" width="1000" height="200" viewBox="0 0 1000 200" fill="none" role="img" aria-labelledby="title desc">
<title id="title">Filip Bozhinovski</title>
<desc id="desc">Product Engineer · Frontend-first · TypeScript &amp; React. Skopje, North Macedonia · @ssbarbee</desc>
<style>
  .header { font: 600 18px 'Segoe UI', Ubuntu, 'Helvetica Neue', Sans-Serif; fill: #7cebf5; }
  .stat { font: 600 14px 'Segoe UI', Ubuntu, 'Helvetica Neue', Sans-Serif; fill: #e6edf3; }
  .rank { font: 800 24px 'Segoe UI', Ubuntu, 'Helvetica Neue', Sans-Serif; fill: #e6edf3; }
  .description { font: 400 13px 'Segoe UI', Ubuntu, 'Helvetica Neue', Sans-Serif; fill: #e6edf3; }
  .label { font: 400 12px 'Segoe UI', Ubuntu, 'Helvetica Neue', Sans-Serif; fill: #e6edf3; }
  .small { font: 400 10px 'Segoe UI', Ubuntu, 'Helvetica Neue', Sans-Serif; fill: #9198a1; }
  .name { font: 700 40px 'Segoe UI', Ubuntu, 'Helvetica Neue', Sans-Serif; fill: #e6edf3; }
  .role { font: 400 18px 'Segoe UI', Ubuntu, 'Helvetica Neue', Sans-Serif; fill: #7cebf5; }
  .meta { font: 400 14px 'Segoe UI', Ubuntu, 'Helvetica Neue', Sans-Serif; fill: #9198a1; }
  .temperature { font: 600 48px 'Segoe UI', Ubuntu, 'Helvetica Neue', Sans-Serif; fill: #e6edf3; }
  .muted { fill: #9198a1; }
  .strong { font-weight: 600; }
  .icon { fill: #4493f8; }
</style>
<rect x="0.5" y="0.5" rx="6" width="999" height="199" fill="#151b23" stroke="#3d444d"/>
<text class="name" x="40" y="86">Filip Bozhinovski</text>
<text class="role" x="42" y="120">Product Engineer · Frontend-first · TypeScript &amp; React</text>
<text class="meta" x="42" y="150">Skopje, North Macedonia · @ssbarbee</text>
<rect class="day" x="599" y="44" width="11" height="11" rx="2" fill="#7cebf5" fill-opacity="0.35"/><rect class="day" x="599" y="58" width="11" height="11" rx="2" fill="#7cebf5" fill-opacity="0.35"/><rect class="day" x="599" y="72" width="11" height="11" rx="2" fill="#7cebf5" fill-opacity="0.35"/><rect class="day" x="599" y="86" width="11" height="11" rx="2" fill="#7cebf5" fill-opacity="0.35"/><rect class="day" x="599" y="100" width="11" height="11" rx="2" fill="#7cebf5" fill-opacity="0.35"/><rect class="day" x="599" y="114" width="11" height="11" rx="2" fill="#7cebf5" fill-opacity="0.35"/><rect class="day" x="599" y="128" width="11" height="11" rx="2" fill="#7cebf5" fill-opacity="0.35"/>
<rect class="day" x="613" y="44" width="11" height="11" rx="2" fill="#7cebf5" fill-opacity="0.78"/><rect class="day" x="613" y="58" width="11" height="11" rx="2" fill="#7cebf5" fill-opacity="0.35"/><rect class="day" x="613" y="72" width="11" height="11" rx="2" fill="#7cebf5" fill-opacity="0.35"/><rect class="day" x="613" y="86" width="11" height="11" rx="2" fill="#7cebf5" fill-opacity="1"/><rect class="day" x="613" y="100" width="11" height="11" rx="2" fill="#7cebf5" fill-opacity="0.55"/><rect class="day" x="613" y="114" width="11" height="11" rx="2" fill="#7cebf5" fill-opacity="0.35"/><rect class="day" x="613" y="128" width="11" height="11" rx="2" fill="#7cebf5" fill-opacity="0.35"/>
<rect class="day" x="627" y="44" width="11" height="11" rx="2" fill="#7cebf5" fill-opacity="0.35"/><rect class="day" x="627" y="58" width="11" height="11" rx="2" fill="#7cebf5" fill-opacity="0.35"/><rect class="day" x="627" y="72" width="11" height="11" rx="2" fill="#7cebf5" fill-opacity="0.35"/><rect class="day" x="627" y="86" width="11" height="11" rx="2" fill="#7cebf5" fill-opacity="0.55"/><rect class="day" x="627" y="100" width="11" height="11" rx="2" fill="#7cebf5" fill-opacity="0.78"/><rect class="day" x="627" y="114" width="11" height="11" rx="2" fill="#7cebf5" fill-opacity="0.35"/><rect class="day" x="627" y="128" width="11" height="11" rx="2" fill="#7cebf5" fill-opacity="0.35"/>
<rect class="day" x="641" y="44" width="11" height="11" rx="2" fill="#7cebf5" fill-opacity="0.35"/><rect class="day" x="641" y="58" width="11" height="11" rx="2" fill="#7cebf5" fill-opacity="0.35"/><rect class="day" x="641" y="72" width="11" height="11" rx="2" fill="#7cebf5" fill-opacity="0.35"/><rect class="day" x="641" y="86" width="11" height="11" rx="2" fill="#7cebf5" fill-opacity="0.55"/><rect class="day" x="641" y="100" width="11" height="11" rx="2" fill="#7cebf5" fill-opacity="0.55"/><rect class="day" x="641" y="114" width="11" height="11" rx="2" fill="#7cebf5" fill-opacity="0.35"/><rect class="day" x="641" y="128" width="11" height="11" rx="2" fill="#7cebf5" fill-opacity="0.35"/>
<rect class="day" x="655" y="44" width="11" height="11" rx="2" fill="#7cebf5" fill-opacity="0.35"/><rect class="day" x="655" y="58" width="11" height="11" rx="2" fill="#7cebf5" fill-opacity="0.55"/><rect class="day" x="655" y="72" width="11" height="11" rx="2" fill="#7cebf5" fill-opacity="0.55"/><rect class="day" x="655" y="86" width="11" height="11" rx="2" fill="#7cebf5" fill-opacity="0.35"/><rect class="day" x="655" y="100" width="11" height="11" rx="2" fill="#7cebf5" fill-opacity="0.35"/><rect class="day" x="655" y="114" width="11" height="11" rx="2" fill="#7cebf5" fill-opacity="0.35"/><rect class="day" x="655" y="128" width="11" height="11" rx="2" fill="#7cebf5" fill-opacity="0.35"/>
<rect class="day" x="669" y="44" width="11" height="11" rx="2" fill="#7cebf5" fill-opacity="0.35"/><rect class="day" x="669" y="58" width="11" height="11" rx="2" fill="#7cebf5" fill-opacity="0.78"/><rect class="day" x="669" y="72" width="11" height="11" rx="2" fill="#7cebf5" fill-opacity="0.78"/><rect class="day" x="669" y="86" width="11" height="11" rx="2" fill="#7cebf5" fill-opacity="0.55"/><rect class="day" x="669" y="100" width="11" height="11" rx="2" fill="#7cebf5" fill-opacity="0.55"/><rect class="day" x="669" y="114" width="11" height="11" rx="2" fill="#7cebf5" fill-opacity="0.78"/><rect class="day" x="669" y="128" width="11" height="11" rx="2" fill="#7cebf5" fill-opacity="0.35"/>
<rect class="day" x="683" y="44" width="11" height="11" rx="2" fill="#7cebf5" fill-opacity="0.35"/><rect class="day" x="683" y="58" width="11" height="11" rx="2" fill="#7cebf5" fill-opacity="0.35"/><rect class="day" x="683" y="72" width="11" height="11" rx="2" fill="#7cebf5" fill-opacity="0.35"/><rect class="day" x="683" y="86" width="11" height="11" rx="2" fill="#7cebf5" fill-opacity="0.35"/><rect class="day" x="683" y="100" width="11" height="11" rx="2" fill="#7cebf5" fill-opacity="0.35"/><rect class="day" x="683" y="114" width="11" height="11" rx="2" fill="#7cebf5" fill-opacity="0.35"/><rect class="day" x="683" y="128" width="11" height="11" rx="2" fill="#7cebf5" fill-opacity="0.35"/>
<rect class="day" x="697" y="44" width="11" height="11" rx="2" fill="#7cebf5" fill-opacity="0.35"/><rect class="day" x="697" y="58" width="11" height="11" rx="2" fill="#7cebf5" fill-opacity="0.55"/><rect class="day" x="697" y="72" width="11" height="11" rx="2" fill="#7cebf5" fill-opacity="0.35"/><rect class="day" x="697" y="86" width="11" height="11" rx="2" fill="#7cebf5" fill-opacity="0.35"/><rect class="day" x="697" y="100" width="11" height="11" rx="2" fill="#7cebf5" fill-opacity="0.35"/><rect class="day" x="697" y="114" width="11" height="11" rx="2" fill="#7cebf5" fill-opacity="0.35"/><rect class="day" x="697" y="128" width="11" height="11" rx="2" fill="#7cebf5" fill-opacity="0.35"/>
<rect class="day" x="711" y="44" width="11" height="11" rx="2" fill="#7cebf5" fill-opacity="0.35"/><rect class="day" x="711" y="58" width="11" height="11" rx="2" fill="#7cebf5" fill-opacity="0.35"/><rect class="day" x="711" y="72" width="11" height="11" rx="2" fill="#7cebf5" fill-opacity="0.78"/><rect class="day" x="711" y="86" width="11" height="11" rx="2" fill="#7cebf5" fill-opacity="0.55"/><rect class="day" x="711" y="100" width="11" height="11" rx="2" fill="#7cebf5" fill-opacity="0.55"/><rect class="day" x="711" y="114" width="11" height="11" rx="2" fill="#7cebf5" fill-opacity="0.55"/><rect class="day" x="711" y="128" width="11" height="11" rx="2" fill="#7cebf5" fill-opacity="0.35"/>
<rect class="day" x="725" y="44" width="11" height="11" rx="2" fill="#7cebf5" fill-opacity="0.35"/><rect class="day" x="725" y="58" width="11" height="11" rx="2" fill="#7cebf5" fill-opacity="0.55"/><rect class="day" x="725" y="72" width="11" height="11" rx="2" fill="#7cebf5" fill-opacity="0.55"/><rect class="day" x="725" y="86" width="11" height="11" rx="2" fill="#7cebf5" fill-opacity="0.55"/><rect class="day" x="725" y="100" width="11" height="11" rx="2" fill="#7cebf5" fill-opacity="0.55"/><rect class="day" x="725" y="114" width="11" height="11" rx="2" fill="#7cebf5" fill-opacity="0.35"/><rect class="day" x="725" y="128" width="11" height="11" rx="2" fill="#7cebf5" fill-opacity="0.35"/>
<rect class="day" x="739" y="44" width="11" height="11" rx="2" fill="#7cebf5" fill-opacity="0.35"/><rect class="day" x="739" y="58" width="11" height="11" rx="2" fill="#7cebf5" fill-opacity="0.55"/><rect class="day" x="739" y="72" width="11" height="11" rx="2" fill="#7cebf5" fill-opacity="0.35"/><rect class="day" x="739" y="86" width="11" height="11" rx="2" fill="#7cebf5" fill-opacity="0.55"/><rect class="day" x="739" y="100" width="11" height="11" rx="2" fill="#7cebf5" fill-opacity="1"/><rect class="day" x="739" y="114" width="11" height="11" rx="2" fill="#7cebf5" fill-opacity="0.35"/><rect class="day" x="739" y="128" width="11" height="11" rx="2" fill="#7cebf5" fill-opacity="0.35"/>
<rect class="day" x="753" y="44" width="11" height="11" rx="2" fill="#7cebf5" fill-opacity="0.35"/><rect class="day" x="753" y="58" width="11" height="11" rx="2" fill="#7cebf5" fill-opacity="0.78"/><rect class="day" x="753" y="72" width="11" height="11" rx="2" fill="#7cebf5" fill-opacity="0.55"/><rect class="day" x="753" y="86" width="11" height="11" rx="2" fill="#7cebf5" fill-opacity="0.55"/><rect class="day" x="753" y="100" width="11" height="11" rx="2" fill="#7cebf5" fill-opacity="0.55"/><rect class="day" x="753" y="114" width="11" height="11" rx="2" fill="#7cebf5" fill-opacity="0.35"/><rect class="day" x="753" y="128" width="11" height="11" rx="2" fill="#7cebf5" fill-opacity="0.35"/>
<rect class="day" x="767" y="44" width="11" height="11" rx="2" fill="#7cebf5" fill-opacity="0.35"/><rect class="day" x="767" y="58" width="11" height="11" rx="2" fill="#7cebf5" fill-opacity="0.35"/><rect class="day" x="767" y="72" width="11" height="11" rx="2" fill="#7cebf5" fill-opacity="0.35"/><rect class="day" x="767" y="86" width="11" height="11" rx="2" fill="#7cebf5" fill-opacity="0.78"/><rect class="day" x="767" y="100" width="11" height="11" rx="2" fill="#7cebf5" fill-opacity="0.35"/><rect class="day" x="767" y="114" width="11" height="11" rx="2" fill="#7cebf5" fill-opacity="0.78"/><rect class="day" x="767" y="128" width="11" height="11" rx="2" fill="#7cebf5" fill-opacity="0.35"/>
<rect class="day" x="781" y="44" width="11" height="11" rx="2" fill="#7cebf5" fill-opacity="0.35"/><rect class="day" x="781" y="58" width="11" height="11" rx="2" fill="#7cebf5" fill-opacity="0.55"/><rect class="day" x="781" y="72" width="11" height="11" rx="2" fill="#7cebf5" fill-opacity="0.35"/><rect class="day" x="781" y="86" width="11" height="11" rx="2" fill="#7cebf5" fill-opacity="0.55"/><rect class="day" x="781" y="100" width="11" height="11" rx="2" fill="#7cebf5" fill-opacity="0.55"/><rect class="day" x="781" y="114" width="11" height="11" rx="2" fill="#7cebf5" fill-opacity="0.55"/><rect class="day" x="781" y="128" width="11" height="11" rx="2" fill="#7cebf5" fill-opacity="0.35"/>
<rect class="day" x="795" y="44" width="11" height="11" rx="2" fill="#7cebf5" fill-opacity="0.55"/><rect class="day" x="795" y="58" width="11" height="11" rx="2" fill="#7cebf5" fill-opacity="0.55"/><rect class="day" x="795" y="72" width="11" height="11" rx="2" fill="#7cebf5" fill-opacity="0.35"/><rect class="day" x="795" y="86" width="11" height="11" rx="2" fill="#7cebf5" fill-opacity="0.55"/><rect class="day" x="795" y="100" width="11" height="11" rx="2" fill="#7cebf5" fill-opacity="0.35"/><rect class="day" x="795" y="114" width="11" height="11" rx="2" fill="#7cebf5" fill-opacity="0.35"/><rect class="day" x="795" y="128" width="11" height="11" rx="2" fill="#7cebf5" fill-opacity="0.55"/>
<rect class="day" x="809" y="44" width="11" height="11" rx="2" fill="#7cebf5" fill-opacity="0.35"/><rect class="day" x="809" y="58" width="11" height="11" rx="2" fill="#7cebf5" fill-opacity="0.35"/><rect class="day" x="809" y="72" width="11" height="11" rx="2" fill="#7cebf5" fill-opacity="0.55"/><rect class="day" x="809" y="86" width="11" height="11" rx="2" fill="#7cebf5" fill-opacity="0.55"/><rect class="day" x="809" y="100" width="11" height="11" rx="2" fill="#7cebf5" fill-opacity="0.35"/><rect class="day" x="809" y="114" width="11" height="11" rx="2" fill="#7cebf5" fill-opacity="0.35"/><rect class="day" x="809" y="128" width="11" height="11" rx="2" fill="#7cebf5" fill-opacity="0.35"/>
<rect class="day" x="823" y="44" width="11" height="11" rx="2" fill="#7cebf5" fill-opacity="0.35"/><rect class="day" x="823" y="58" width="11" height="11" rx="2" fill="#7cebf5" fill-opacity="0.35"/><rect class="day" x="823" y="72" width="11" height="11" rx="2" fill="#7cebf5" fill-opacity="0.35"/><rect class="day" x="823" y="86" width="11" height="11" rx="2" fill="#7cebf5" fill-opacity="0.35"/><rect class="day" x="823" y="100" width="11" height="11" rx="2" fill="#7cebf5" fill-opacity="0.35"/><rect class="day" x="823" y="114" width="11" height="11" rx="2" fill="#7cebf5" fill-opacity="0.55"/><rect class="day" x="823" y="128" width="11" height="11" rx="2" fill="#7cebf5" fill-opacity="0.35"/>
<rect class="day" x="837" y="44" width="11" height="11" rx="2" fill="#7cebf5" fill-opacity="0.35"/><rect class="day" x="837" y="58" width="11" height="11" rx="2" fill="#7cebf5" fill-opacity="0.55"/><rect class="day" x="837" y="72" width="11" height="11" rx="2" fill="#7cebf5" fill-opacity="0.35"/><rect class="day" x="837" y="86" width="11" height="11" rx="2" fill="#7cebf5" fill-opacity="0.55"/><rect class="day" x="837" y="100" width="11" height="11" rx="2" fill="#7cebf5" fill-opacity="0.55"/><rect class="day" x="837" y="114" width="11" height="11" rx="2" fill="#7cebf5" fill-opacity="0.55"/><rect class="day" x="837" y="128" width="11" height="11" rx="2" fill="#7cebf5" fill-opacity="0.35"/>
<rect class="day" x="851" y="44" width="11" height="11" rx="2" fill="#7cebf5" fill-opacity="0.35"/><rect class="day" x="851" y="58" width="11" height="11" rx="2" fill="#7cebf5" fill-opacity="0.35"/><rect class="day" x="851" y="72" width="11" height="11" rx="2" fill="#7cebf5" fill-opacity="0.35"/><rect class="day" x="851" y="86" width="11" height="11" rx="2" fill="#7cebf5" fill-opacity="0.35"/><rect class="day" x="851" y="100" width="11" height="11" rx="2" fill="#7cebf5" fill-opacity="0.55"/><rect class="day" x="851" y="114" width="11" height="11" rx="2" fill="#7cebf5" fill-opacity="0.35"/><rect class="day" x="851" y="128" width="11" height="11" rx="2" fill="#7cebf5" fill-opacity="0.35"/>
<rect class="day" x="865" y="44" width="11" height="11" rx="2" fill="#7cebf5" fill-opacity="0.35"/><rect class="day" x="865" y="58" width="11" height="11" rx="2" fill="#7cebf5" fill-opacity="0.35"/><rect class="day" x="865" y="72" width="11" height="11" rx="2" fill="#7cebf5" fill-opacity="0.55"/><rect class="day" x="865" y="86" width="11" height="11" rx="2" fill="#7cebf5" fill-opacity="0.35"/><rect class="day" x="865" y="100" width="11" height="11" rx="2" fill="#7cebf5" fill-opacity="0.55"/><rect class="day" x="865" y="114" width="11" height="11" rx="2" fill="#7cebf5" fill-opacity="0.35"/><rect class="day" x="865" y="128" width="11" height="11" rx="2" fill="#7cebf5" fill-opacity="0.35"/>
<rect class="day" x="879" y="44" width="11" height="11" rx="2" fill="#7cebf5" fill-opacity="0.35"/><rect class="day" x="879" y="58" width="11" height="11" rx="2" fill="#7cebf5" fill-opacity="0.55"/><rect class="day" x="879" y="72" width="11" height="11" rx="2" fill="#7cebf5" fill-opacity="0.55"/><rect class="day" x="879" y="86" width="11" height="11" rx="2" fill="#7cebf5" fill-opacity="0.78"/><rect class="day" x="879" y="100" width="11" height="11" rx="2" fill="#7cebf5" fill-opacity="0.35"/><rect class="day" x="879" y="114" width="11" height="11" rx="2" fill="#7cebf5" fill-opacity="0.35"/><rect class="day" x="879" y="128" width="11" height="11" rx="2" fill="#7cebf5" fill-opacity="0.35"/>
<rect class="day" x="893" y="44" width="11" height="11" rx="2" fill="#7cebf5" fill-opacity="0.35"/><rect class="day" x="893" y="58" width="11" height="11" rx="2" fill="#7cebf5" fill-opacity="0.35"/><rect class="day" x="893" y="72" width="11" height="11" rx="2" fill="#7cebf5" fill-opacity="0.35"/><rect class="day" x="893" y="86" width="11" height="11" rx="2" fill="#7cebf5" fill-opacity="0.35"/><rect class="day" x="893" y="100" width="11" height="11" rx="2" fill="#7cebf5" fill-opacity="0.35"/><rect class="day" x="893" y="114" width="11" height="11" rx="2" fill="#7cebf5" fill-opacity="0.35"/><rect class="day" x="893" y="128" width="11" height="11" rx="2" fill="#7cebf5" fill-opacity="0.35"/>
<rect class="day" x="907" y="44" width="11" height="11" rx="2" fill="#7cebf5" fill-opacity="0.35"/><rect class="day" x="907" y="58" width="11" height="11" rx="2" fill="#7cebf5" fill-opacity="0.35"/><rect class="day" x="907" y="72" width="11" height="11" rx="2" fill="#7cebf5" fill-opacity="0.35"/><rect class="day" x="907" y="86" width="11" height="11" rx="2" fill="#7cebf5" fill-opacity="0.35"/><rect class="day" x="907" y="100" width="11" height="11" rx="2" fill="#7cebf5" fill-opacity="0.35"/><rect class="day" x="907" y="114" width="11" height="11" rx="2" fill="#7cebf5" fill-opacity="0.35"/><rect class="day" x="907" y="128" width="11" height="11" rx="2" fill="#7cebf5" fill-opacity="0.35"/>
<rect class="day" x="921" y="44" width="11" height="11" rx="2" fill="#7cebf5" fill-opacity="0.35"/><rect class="day" x="921" y="58" width="11" height="11" rx="2" fill="#7cebf5" fill-opacity="0.55"/><rect class="day" x="921" y="72" width="11" height="11" rx="2" fill="#7cebf5" fill-opacity="0.55"/><rect class="day" x="921" y="86" width="11" height="11" rx="2" fill="#7cebf5" fill-opacity="0.55"/><rect class="day" x="921" y="100" width="11" height="11" rx="2" fill="#7cebf5" fill-opacity="0.55"/><rect class="day" x="921" y="114" width="11" height="11" rx="2" fill="#7cebf5" fill-opacity="0.78"/><rect class="day" x="921" y="128" width="11" height="11" rx="2" fill="#7cebf5" fill-opacity="0.78"/>
<rect class="day" x="935" y="44" width="11" height="11" rx="2" fill="#7cebf5" fill-opacity="1"/><rect class="day" x="935" y="58" width="11" height="11" rx="2" fill="#7cebf5" fill-opacity="1"/><rect class="day" x="935" y="72" width="11" height="11" rx="2" fill="#7cebf5" fill-opacity="1"/><rect class="day" x="935" y="86" width="11" height="11" rx="2" fill="#7cebf5" fill-opacity="1"/><rect class="day" x="935" y="100" width="11" height="11" rx="2" fill="#7cebf5" fill-opacity="0.35"/><rect class="day" x="935" y="114" width="11" height="11" rx="2" fill="#7cebf5" fill-opacity="0.78"/><rect class="day" x="935" y="128" width="11" height="11" rx="2" fill="#7cebf5" fill-opacity="0.78"/>
<rect class="day" x="949" y="44" width="11" height="11" rx="2" fill="#7cebf5" fill-opacity="0.78"/><rect class="day" x="949" y="58" width="11" height="11" rx="2" fill="#7cebf5" fill-opacity="0.55"/><rect class="day" x="949" y="72" width="11" height="11" rx="2" fill="#7cebf5" fill-opacity="0.78"/>
<text class="label muted" x="599" y="160">Last 6 months of contributions</text>
</svg>
