<svg xmlns="http://www.w3.org/2000/svg" width="467" height="195" viewBox="0 0 467 195" fill="none" role="img" aria-labelledby="title desc">
<title id="title">Most Used Languages</title>
<desc id="desc">TypeScript 79.93%, Monkey C 10.70%, JavaScript 4.67%, CSS 2.07%, Mustache 1.67%, Shell 0.40%, HTML 0.30%, Makefile 0.26%</desc>
<style>
  .header { font: 600 18px 'Segoe UI', Ubuntu, 'Helvetica Neue', Sans-Serif; fill: #7cebf5; }
  .stat { font: 600 14px 'Segoe UI', Ubuntu, 'Helvetica Neue', Sans-Serif; fill: #e6edf3; }
  .rank { font: 800 24px 'Segoe UI', Ubuntu, 'Helvetica Neue', Sans-Serif; fill: #e6edf3; }
  .description { font: 400 13px 'Segoe UI', Ubuntu, 'Helvetica Neue', Sans-Serif; fill: #e6edf3; }
  .label { font: 400 12px 'Segoe UI', Ubuntu, 'Helvetica Neue', Sans-Serif; fill: #e6edf3; }
  .body { font: 400 14px 'Segoe UI', Ubuntu, 'Helvetica Neue', Sans-Serif; fill: #e6edf3; }
  .small { font: 400 11px 'Segoe UI', Ubuntu, 'Helvetica Neue', Sans-Serif; fill: #9198a1; }
  .name { font: 700 40px 'Segoe UI', Ubuntu, 'Helvetica Neue', Sans-Serif; fill: #e6edf3; }
  .role { font: 400 18px 'Segoe UI', Ubuntu, 'Helvetica Neue', Sans-Serif; fill: #7cebf5; }
  .meta { font: 400 14px 'Segoe UI', Ubuntu, 'Helvetica Neue', Sans-Serif; fill: #9198a1; }
  .temperature { font: 600 48px 'Segoe UI', Ubuntu, 'Helvetica Neue', Sans-Serif; fill: #e6edf3; }
  .muted { fill: #9198a1; }
  .strong { font-weight: 600; }
  .icon { fill: #4493f8; }
</style>
<rect x="0.5" y="0.5" rx="6" width="466" height="194" fill="#151b23" stroke="#3d444d"/>
<text class="header" x="25" y="35">Most Used Languages</text>
<clipPath id="bar"><rect x="25" y="55" width="417" height="8" rx="5"/></clipPath>
<g clip-path="url(#bar)"><rect x="25" y="55" width="333.3117269151144" height="8" fill="#3178c6"/><rect x="358.3117269151144" y="55" width="44.613150198050626" height="8" fill="#8D6747"/><rect x="402.924877113165" y="55" width="19.463645267805806" height="8" fill="#f1e05a"/><rect x="422.3885223809708" y="55" width="8.650087833123882" height="8" fill="#663399"/><rect x="431.0386102140947" y="55" width="6.945277577669252" height="8" fill="#724b3b"/><rect x="437.98388779176395" y="55" width="1.6839621033590204" height="8" fill="#89e051"/><rect x="439.66784989512297" y="55" width="1.2328839034721923" height="8" fill="#e34c26"/><rect x="440.9007337985952" y="55" width="1.0992662014048753" height="8" fill="#427819"/></g>
<circle cx="30" cy="86" r="5" fill="#3178c6"/><text class="label" x="40" y="90">TypeScript 79.93%</text>
<circle cx="30" cy="111" r="5" fill="#8D6747"/><text class="label" x="40" y="115">Monkey C 10.70%</text>
<circle cx="30" cy="136" r="5" fill="#f1e05a"/><text class="label" x="40" y="140">JavaScript 4.67%</text>
<circle cx="30" cy="161" r="5" fill="#663399"/><text class="label" x="40" y="165">CSS 2.07%</text>
<circle cx="250" cy="86" r="5" fill="#724b3b"/><text class="label" x="260" y="90">Mustache 1.67%</text>
<circle cx="250" cy="111" r="5" fill="#89e051"/><text class="label" x="260" y="115">Shell 0.40%</text>
<circle cx="250" cy="136" r="5" fill="#e34c26"/><text class="label" x="260" y="140">HTML 0.30%</text>
<circle cx="250" cy="161" r="5" fill="#427819"/><text class="label" x="260" y="165">Makefile 0.26%</text>
</svg>
