<svg xmlns="http://www.w3.org/2000/svg" width="1000" height="240" viewBox="0 0 1000 240" fill="none" role="img" aria-labelledby="title desc">
<title id="title">Filip Bozhinovski</title>
<desc id="desc">Product Engineer · Frontend-first · TypeScript &amp; React. Skopje, North Macedonia · @ssbarbee. Skopje on 8 Oct at 14:15: 23°C, Partly cloudy, air quality good. Lit windows show contributions over the last months.</desc>
<style>
  .header { font: 600 18px 'Segoe UI', Ubuntu, 'Helvetica Neue', Sans-Serif; fill: #0b7285; }
  .stat { font: 600 14px 'Segoe UI', Ubuntu, 'Helvetica Neue', Sans-Serif; fill: #1f2328; }
  .rank { font: 800 24px 'Segoe UI', Ubuntu, 'Helvetica Neue', Sans-Serif; fill: #1f2328; }
  .description { font: 400 13px 'Segoe UI', Ubuntu, 'Helvetica Neue', Sans-Serif; fill: #1f2328; }
  .label { font: 400 12px 'Segoe UI', Ubuntu, 'Helvetica Neue', Sans-Serif; fill: #1f2328; }
  .body { font: 400 14px 'Segoe UI', Ubuntu, 'Helvetica Neue', Sans-Serif; fill: #1f2328; }
  .small { font: 400 11px 'Segoe UI', Ubuntu, 'Helvetica Neue', Sans-Serif; fill: #59636e; }
  .name { font: 700 40px 'Segoe UI', Ubuntu, 'Helvetica Neue', Sans-Serif; fill: #1f2328; }
  .role { font: 400 18px 'Segoe UI', Ubuntu, 'Helvetica Neue', Sans-Serif; fill: #0b7285; }
  .meta { font: 400 14px 'Segoe UI', Ubuntu, 'Helvetica Neue', Sans-Serif; fill: #59636e; }
  .temperature { font: 600 48px 'Segoe UI', Ubuntu, 'Helvetica Neue', Sans-Serif; fill: #1f2328; }
  .muted { fill: #59636e; }
  .strong { font-weight: 600; }
  .icon { fill: #0969da; }

      .sky-name { font: 700 38px 'Segoe UI', Ubuntu, 'Helvetica Neue', Sans-Serif; fill: #ffffff; }
      .sky-role { font: 500 18px 'Segoe UI', Ubuntu, 'Helvetica Neue', Sans-Serif; fill: #eaf4ff; }
      .sky-meta { font: 400 13px 'Segoe UI', Ubuntu, 'Helvetica Neue', Sans-Serif; fill: #dbe7f3; }
      .sun-glow { transform-box: fill-box; transform-origin: center; animation: sun-glow 6s ease-in-out 4; } @keyframes sun-glow { 50% { transform: scale(1.25); opacity: 0.12; } }
.cloud { animation-name: cloud-sway; animation-timing-function: ease-in-out; animation-iteration-count: 3; } @keyframes cloud-sway { 50% { transform: translateX(40px); } }
.rain { animation: rain 0.7s linear 40; } @keyframes rain { to { transform: translate(-24px, 240px); } }
.snow { animation: snow 6s linear 5; } @keyframes snow { 50% { transform: translate(8px, 120px); } to { transform: translate(0, 240px); } }
.flicker { animation: flicker 8s steps(1) 4; } @keyframes flicker { 0%, 70% { opacity: 1; } 71%, 80% { opacity: 0.2; } }
  @media (prefers-reduced-motion: reduce) {
    * { animation: none !important; }
  }

    </style>
<rect x="0.5" y="0.5" rx="6" width="999" height="239" fill="#f6f8fa" stroke="#d1d9e0"/>
<defs><linearGradient id="sky" x1="0" y1="0" x2="0" y2="1"><stop offset="0" stop-color="#2f6fb3"/><stop offset="0.5" stop-color="#78b7e8"/><stop offset="1" stop-color="#bfe3f7"/></linearGradient>
<linearGradient id="scrim" x1="0" y1="0" x2="1" y2="0"><stop offset="0" stop-color="#000" stop-opacity="0.32"/><stop offset="0.55" stop-color="#000" stop-opacity="0"/></linearGradient>
<filter id="shadow" x="-10%" y="-30%" width="120%" height="160%"><feDropShadow dx="0" dy="1" stdDeviation="2" flood-color="#000" flood-opacity="0.35"/></filter>
<filter id="glow" x="-100%" y="-100%" width="300%" height="300%"><feGaussianBlur stdDeviation="3"/></filter>
<mask id="moon"><circle cx="905" cy="52" r="16" fill="#fff"/><circle cx="913" cy="46" r="14" fill="#000"/></mask>
<clipPath id="frame"><rect x="1" y="1" width="998" height="238" rx="6"/></clipPath></defs>
<g clip-path="url(#frame)">
<rect width="1000" height="240" fill="url(#sky)"/>
<circle class="sun-glow" cx="636" cy="58" r="36" fill="#fff3b0" opacity="0.25"/>
<circle cx="636" cy="58" r="18" fill="#fff3b0"/>
<g class="cloud" style="animation-duration: 16.8s; animation-delay: -1.0s"><g transform="translate(7 46) scale(1.09)" fill="#ffffff" fill-opacity="0.85"><ellipse cx="0" cy="0" rx="34" ry="12"/><ellipse cx="-16" cy="-6" rx="16" ry="12"/><ellipse cx="10" cy="-12" rx="20" ry="16"/></g></g>
<g class="cloud" style="animation-duration: 16.1s; animation-delay: -6.9s"><g transform="translate(308 36) scale(1.06)" fill="#ffffff" fill-opacity="0.85"><ellipse cx="0" cy="0" rx="34" ry="12"/><ellipse cx="-16" cy="-6" rx="16" ry="12"/><ellipse cx="10" cy="-12" rx="20" ry="16"/></g></g>
<g class="cloud" style="animation-duration: 18.3s; animation-delay: -2.6s"><g transform="translate(501 20) scale(0.62)" fill="#ffffff" fill-opacity="0.85"><ellipse cx="0" cy="0" rx="34" ry="12"/><ellipse cx="-16" cy="-6" rx="16" ry="12"/><ellipse cx="10" cy="-12" rx="20" ry="16"/></g></g>
<g class="cloud" style="animation-duration: 20.3s; animation-delay: -6.5s"><g transform="translate(609 28) scale(0.67)" fill="#ffffff" fill-opacity="0.85"><ellipse cx="0" cy="0" rx="34" ry="12"/><ellipse cx="-16" cy="-6" rx="16" ry="12"/><ellipse cx="10" cy="-12" rx="20" ry="16"/></g></g>
<g class="cloud" style="animation-duration: 19.8s; animation-delay: -9.0s"><g transform="translate(898 42) scale(1.08)" fill="#ffffff" fill-opacity="0.85"><ellipse cx="0" cy="0" rx="34" ry="12"/><ellipse cx="-16" cy="-6" rx="16" ry="12"/><ellipse cx="10" cy="-12" rx="20" ry="16"/></g></g>
<rect width="1000" height="240" fill="url(#scrim)"/>
<path d="M 470 240 L 560 200 Q 620 170 680 146 Q 740 118 790 108 Q 845 116 890 140 Q 940 166 1000 180 L 1000 240 Z" fill="#3d5f83"/>
<rect x="788.5" y="76" width="3" height="32" fill="#1b2b40"/>
<rect x="782" y="84" width="16" height="3" fill="#1b2b40"/>
<rect x="0" y="186" width="53" height="54" fill="#1b2b40"/>
<rect x="56" y="189" width="57" height="51" fill="#1b2b40"/>
<rect x="116" y="204" width="48" height="36" fill="#1b2b40"/>
<rect x="167" y="164" width="52" height="76" fill="#1b2b40"/>
<rect x="222" y="167" width="31" height="73" fill="#1b2b40"/>
<rect x="256" y="198" width="35" height="42" fill="#1b2b40"/>
<rect x="294" y="186" width="34" height="54" fill="#1b2b40"/>
<rect x="331" y="200" width="43" height="40" fill="#1b2b40"/>
<rect x="377" y="183" width="59" height="57" fill="#1b2b40"/>
<rect x="439" y="183" width="33" height="57" fill="#1b2b40"/>
<rect x="475" y="170" width="35" height="70" fill="#1b2b40"/>
<rect x="513" y="197" width="36" height="43" fill="#1b2b40"/>
<rect x="552" y="184" width="42" height="56" fill="#1b2b40"/>
<rect x="597" y="169" width="36" height="71" fill="#1b2b40"/>
<rect x="636" y="189" width="44" height="51" fill="#1b2b40"/>
<rect x="683" y="193" width="39" height="47" fill="#1b2b40"/>
<rect x="725" y="203" width="35" height="37" fill="#1b2b40"/>
<rect x="5" y="194" width="5" height="6" fill="#cfe8ff" opacity="0.21"/>
<rect x="14" y="194" width="5" height="6" fill="#cfe8ff" opacity="0.21"/>
<rect x="23" y="194" width="5" height="6" fill="#cfe8ff" opacity="0.33"/>
<rect x="32" y="194" width="5" height="6" fill="#cfe8ff" opacity="0.33"/>
<rect x="41" y="194" width="5" height="6" fill="#cfe8ff" opacity="0.21"/>
<rect x="5" y="204" width="5" height="6" fill="#cfe8ff" opacity="0.33"/>
<rect x="14" y="204" width="5" height="6" fill="#cfe8ff" opacity="0.60"/>
<rect x="23" y="204" width="5" height="6" fill="#cfe8ff" opacity="0.33"/>
<rect x="32" y="204" width="5" height="6" fill="#cfe8ff" opacity="0.48"/>
<rect x="41" y="204" width="5" height="6" fill="#cfe8ff" opacity="0.48"/>
<rect x="5" y="214" width="5" height="6" fill="#cfe8ff" opacity="0.33"/>
<rect x="14" y="214" width="5" height="6" fill="#cfe8ff" opacity="0.60"/>
<rect x="23" y="214" width="5" height="6" fill="#cfe8ff" opacity="0.33"/>
<rect x="32" y="214" width="5" height="6" fill="#cfe8ff" opacity="0.21"/>
<rect x="41" y="214" width="5" height="6" fill="#cfe8ff" opacity="0.21"/>
<rect x="5" y="224" width="5" height="6" fill="#cfe8ff" opacity="0.21"/>
<rect x="14" y="224" width="5" height="6" fill="#cfe8ff" opacity="0.21"/>
<rect x="23" y="224" width="5" height="6" fill="#cfe8ff" opacity="0.21"/>
<rect x="32" y="224" width="5" height="6" fill="#cfe8ff" opacity="0.21"/>
<rect x="41" y="224" width="5" height="6" fill="#cfe8ff" opacity="0.21"/>
<rect x="61" y="197" width="5" height="6" fill="#cfe8ff" opacity="0.21"/>
<rect x="70" y="197" width="5" height="6" fill="#cfe8ff" opacity="0.21"/>
<rect x="79" y="197" width="5" height="6" fill="#cfe8ff" opacity="0.21"/>
<rect x="88" y="197" width="5" height="6" fill="#cfe8ff" opacity="0.21"/>
<rect x="97" y="197" width="5" height="6" fill="#cfe8ff" opacity="0.21"/>
<rect x="61" y="207" width="5" height="6" fill="#cfe8ff" opacity="0.21"/>
<rect x="70" y="207" width="5" height="6" fill="#cfe8ff" opacity="0.21"/>
<rect x="79" y="207" width="5" height="6" fill="#cfe8ff" opacity="0.21"/>
<rect x="88" y="207" width="5" height="6" fill="#cfe8ff" opacity="0.21"/>
<rect x="97" y="207" width="5" height="6" fill="#cfe8ff" opacity="0.21"/>
<rect x="61" y="217" width="5" height="6" fill="#cfe8ff" opacity="0.21"/>
<rect x="70" y="217" width="5" height="6" fill="#cfe8ff" opacity="0.33"/>
<rect x="79" y="217" width="5" height="6" fill="#cfe8ff" opacity="0.21"/>
<rect x="88" y="217" width="5" height="6" fill="#cfe8ff" opacity="0.21"/>
<rect x="97" y="217" width="5" height="6" fill="#cfe8ff" opacity="0.21"/>
<rect x="61" y="227" width="5" height="6" fill="#cfe8ff" opacity="0.21"/>
<rect x="70" y="227" width="5" height="6" fill="#cfe8ff" opacity="0.33"/>
<rect x="79" y="227" width="5" height="6" fill="#cfe8ff" opacity="0.48"/>
<rect x="88" y="227" width="5" height="6" fill="#cfe8ff" opacity="0.60"/>
<rect x="97" y="227" width="5" height="6" fill="#cfe8ff" opacity="0.21"/>
<rect x="121" y="212" width="5" height="6" fill="#cfe8ff" opacity="0.21"/>
<rect x="130" y="212" width="5" height="6" fill="#cfe8ff" opacity="0.21"/>
<rect x="139" y="212" width="5" height="6" fill="#cfe8ff" opacity="0.21"/>
<rect x="148" y="212" width="5" height="6" fill="#cfe8ff" opacity="0.21"/>
<rect x="121" y="222" width="5" height="6" fill="#cfe8ff" opacity="0.33"/>
<rect x="130" y="222" width="5" height="6" fill="#cfe8ff" opacity="0.21"/>
<rect x="139" y="222" width="5" height="6" fill="#cfe8ff" opacity="0.21"/>
<rect x="148" y="222" width="5" height="6" fill="#cfe8ff" opacity="0.21"/>
<rect x="172" y="172" width="5" height="6" fill="#cfe8ff" opacity="0.21"/>
<rect x="181" y="172" width="5" height="6" fill="#cfe8ff" opacity="0.21"/>
<rect x="190" y="172" width="5" height="6" fill="#cfe8ff" opacity="0.21"/>
<rect x="199" y="172" width="5" height="6" fill="#cfe8ff" opacity="0.21"/>
<rect x="208" y="172" width="5" height="6" fill="#cfe8ff" opacity="0.21"/>
<rect x="172" y="182" width="5" height="6" fill="#cfe8ff" opacity="0.21"/>
<rect x="181" y="182" width="5" height="6" fill="#cfe8ff" opacity="0.21"/>
<rect x="190" y="182" width="5" height="6" fill="#cfe8ff" opacity="0.21"/>
<rect x="199" y="182" width="5" height="6" fill="#cfe8ff" opacity="0.33"/>
<rect x="208" y="182" width="5" height="6" fill="#cfe8ff" opacity="0.21"/>
<rect x="172" y="192" width="5" height="6" fill="#cfe8ff" opacity="0.21"/>
<rect x="181" y="192" width="5" height="6" fill="#cfe8ff" opacity="0.21"/>
<rect x="190" y="192" width="5" height="6" fill="#cfe8ff" opacity="0.33"/>
<rect x="199" y="192" width="5" height="6" fill="#cfe8ff" opacity="0.21"/>
<rect x="208" y="192" width="5" height="6" fill="#cfe8ff" opacity="0.21"/>
<rect x="172" y="202" width="5" height="6" fill="#cfe8ff" opacity="0.21"/>
<rect x="181" y="202" width="5" height="6" fill="#cfe8ff" opacity="0.21"/>
<rect x="190" y="202" width="5" height="6" fill="#cfe8ff" opacity="0.21"/>
<rect x="199" y="202" width="5" height="6" fill="#cfe8ff" opacity="0.33"/>
<rect x="208" y="202" width="5" height="6" fill="#cfe8ff" opacity="0.21"/>
<rect x="172" y="212" width="5" height="6" fill="#cfe8ff" opacity="0.33"/>
<rect x="181" y="212" width="5" height="6" fill="#cfe8ff" opacity="0.21"/>
<rect x="190" y="212" width="5" height="6" fill="#cfe8ff" opacity="0.21"/>
<rect x="199" y="212" width="5" height="6" fill="#cfe8ff" opacity="0.21"/>
<rect x="208" y="212" width="5" height="6" fill="#cfe8ff" opacity="0.21"/>
<rect x="172" y="222" width="5" height="6" fill="#cfe8ff" opacity="0.21"/>
<rect x="181" y="222" width="5" height="6" fill="#cfe8ff" opacity="0.21"/>
<rect x="190" y="222" width="5" height="6" fill="#cfe8ff" opacity="0.21"/>
<rect x="199" y="222" width="5" height="6" fill="#cfe8ff" opacity="0.21"/>
<rect x="208" y="222" width="5" height="6" fill="#cfe8ff" opacity="0.21"/>
<rect x="227" y="175" width="5" height="6" fill="#cfe8ff" opacity="0.48"/>
<rect x="236" y="175" width="5" height="6" fill="#cfe8ff" opacity="0.21"/>
<rect x="227" y="185" width="5" height="6" fill="#cfe8ff" opacity="0.21"/>
<rect x="236" y="185" width="5" height="6" fill="#cfe8ff" opacity="0.60"/>
<rect x="227" y="195" width="5" height="6" fill="#cfe8ff" opacity="0.33"/>
<rect x="236" y="195" width="5" height="6" fill="#cfe8ff" opacity="0.21"/>
<rect x="227" y="205" width="5" height="6" fill="#cfe8ff" opacity="0.21"/>
<rect x="236" y="205" width="5" height="6" fill="#cfe8ff" opacity="0.21"/>
<rect x="227" y="215" width="5" height="6" fill="#cfe8ff" opacity="0.21"/>
<rect x="236" y="215" width="5" height="6" fill="#cfe8ff" opacity="0.21"/>
<rect x="227" y="225" width="5" height="6" fill="#cfe8ff" opacity="0.33"/>
<rect x="236" y="225" width="5" height="6" fill="#cfe8ff" opacity="0.48"/>
<rect x="261" y="206" width="5" height="6" fill="#cfe8ff" opacity="0.21"/>
<rect x="270" y="206" width="5" height="6" fill="#cfe8ff" opacity="0.21"/>
<rect x="279" y="206" width="5" height="6" fill="#cfe8ff" opacity="0.21"/>
<rect x="261" y="216" width="5" height="6" fill="#cfe8ff" opacity="0.21"/>
<rect x="270" y="216" width="5" height="6" fill="#cfe8ff" opacity="0.21"/>
<rect x="279" y="216" width="5" height="6" fill="#cfe8ff" opacity="0.33"/>
<rect x="261" y="226" width="5" height="6" fill="#cfe8ff" opacity="0.33"/>
<rect x="270" y="226" width="5" height="6" fill="#cfe8ff" opacity="0.21"/>
<rect x="279" y="226" width="5" height="6" fill="#cfe8ff" opacity="0.21"/>
<rect x="299" y="194" width="5" height="6" fill="#cfe8ff" opacity="0.21"/>
<rect x="308" y="194" width="5" height="6" fill="#cfe8ff" opacity="0.33"/>
<rect x="317" y="194" width="5" height="6" fill="#cfe8ff" opacity="0.33"/>
<rect x="299" y="204" width="5" height="6" fill="#cfe8ff" opacity="0.21"/>
<rect x="308" y="204" width="5" height="6" fill="#cfe8ff" opacity="0.21"/>
<rect x="317" y="204" width="5" height="6" fill="#cfe8ff" opacity="0.21"/>
<rect x="299" y="214" width="5" height="6" fill="#cfe8ff" opacity="0.21"/>
<rect x="308" y="214" width="5" height="6" fill="#cfe8ff" opacity="0.21"/>
<rect x="317" y="214" width="5" height="6" fill="#cfe8ff" opacity="0.48"/>
<rect x="299" y="224" width="5" height="6" fill="#cfe8ff" opacity="0.48"/>
<rect x="308" y="224" width="5" height="6" fill="#cfe8ff" opacity="0.33"/>
<rect x="317" y="224" width="5" height="6" fill="#cfe8ff" opacity="0.33"/>
<rect x="336" y="208" width="5" height="6" fill="#cfe8ff" opacity="0.48"/>
<rect x="345" y="208" width="5" height="6" fill="#cfe8ff" opacity="0.21"/>
<rect x="354" y="208" width="5" height="6" fill="#cfe8ff" opacity="0.21"/>
<rect x="363" y="208" width="5" height="6" fill="#cfe8ff" opacity="0.21"/>
<rect x="336" y="218" width="5" height="6" fill="#cfe8ff" opacity="0.21"/>
<rect x="345" y="218" width="5" height="6" fill="#cfe8ff" opacity="0.21"/>
<rect x="354" y="218" width="5" height="6" fill="#cfe8ff" opacity="0.21"/>
<rect x="363" y="218" width="5" height="6" fill="#cfe8ff" opacity="0.21"/>
<rect x="336" y="228" width="5" height="6" fill="#cfe8ff" opacity="0.21"/>
<rect x="345" y="228" width="5" height="6" fill="#cfe8ff" opacity="0.21"/>
<rect x="354" y="228" width="5" height="6" fill="#cfe8ff" opacity="0.33"/>
<rect x="363" y="228" width="5" height="6" fill="#cfe8ff" opacity="0.21"/>
<rect x="382" y="191" width="5" height="6" fill="#cfe8ff" opacity="0.21"/>
<rect x="391" y="191" width="5" height="6" fill="#cfe8ff" opacity="0.21"/>
<rect x="400" y="191" width="5" height="6" fill="#cfe8ff" opacity="0.21"/>
<rect x="409" y="191" width="5" height="6" fill="#cfe8ff" opacity="0.21"/>
<rect x="418" y="191" width="5" height="6" fill="#cfe8ff" opacity="0.21"/>
<rect x="427" y="191" width="5" height="6" fill="#cfe8ff" opacity="0.21"/>
<rect x="382" y="201" width="5" height="6" fill="#cfe8ff" opacity="0.48"/>
<rect x="391" y="201" width="5" height="6" fill="#cfe8ff" opacity="0.33"/>
<rect x="400" y="201" width="5" height="6" fill="#cfe8ff" opacity="0.33"/>
<rect x="409" y="201" width="5" height="6" fill="#cfe8ff" opacity="0.33"/>
<rect x="418" y="201" width="5" height="6" fill="#cfe8ff" opacity="0.21"/>
<rect x="427" y="201" width="5" height="6" fill="#cfe8ff" opacity="0.21"/>
<rect x="382" y="211" width="5" height="6" fill="#cfe8ff" opacity="0.33"/>
<rect x="391" y="211" width="5" height="6" fill="#cfe8ff" opacity="0.33"/>
<rect x="400" y="211" width="5" height="6" fill="#cfe8ff" opacity="0.33"/>
<rect x="409" y="211" width="5" height="6" fill="#cfe8ff" opacity="0.33"/>
<rect x="418" y="211" width="5" height="6" fill="#cfe8ff" opacity="0.21"/>
<rect x="427" y="211" width="5" height="6" fill="#cfe8ff" opacity="0.21"/>
<rect x="382" y="221" width="5" height="6" fill="#cfe8ff" opacity="0.21"/>
<rect x="391" y="221" width="5" height="6" fill="#cfe8ff" opacity="0.33"/>
<rect x="400" y="221" width="5" height="6" fill="#cfe8ff" opacity="0.21"/>
<rect x="409" y="221" width="5" height="6" fill="#cfe8ff" opacity="0.33"/>
<rect x="418" y="221" width="5" height="6" fill="#cfe8ff" opacity="0.60"/>
<rect x="427" y="221" width="5" height="6" fill="#cfe8ff" opacity="0.21"/>
<rect x="444" y="191" width="5" height="6" fill="#cfe8ff" opacity="0.21"/>
<rect x="453" y="191" width="5" height="6" fill="#cfe8ff" opacity="0.21"/>
<rect x="462" y="191" width="5" height="6" fill="#cfe8ff" opacity="0.48"/>
<rect x="444" y="201" width="5" height="6" fill="#cfe8ff" opacity="0.33"/>
<rect x="453" y="201" width="5" height="6" fill="#cfe8ff" opacity="0.33"/>
<rect x="462" y="201" width="5" height="6" fill="#cfe8ff" opacity="0.33"/>
<rect x="444" y="211" width="5" height="6" fill="#cfe8ff" opacity="0.21"/>
<rect x="453" y="211" width="5" height="6" fill="#cfe8ff" opacity="0.21"/>
<rect x="462" y="211" width="5" height="6" fill="#cfe8ff" opacity="0.21"/>
<rect x="444" y="221" width="5" height="6" fill="#cfe8ff" opacity="0.21"/>
<rect x="453" y="221" width="5" height="6" fill="#cfe8ff" opacity="0.21"/>
<rect x="462" y="221" width="5" height="6" fill="#cfe8ff" opacity="0.48"/>
<rect x="480" y="178" width="5" height="6" fill="#cfe8ff" opacity="0.21"/>
<rect x="489" y="178" width="5" height="6" fill="#cfe8ff" opacity="0.48"/>
<rect x="498" y="178" width="5" height="6" fill="#cfe8ff" opacity="0.21"/>
<rect x="480" y="188" width="5" height="6" fill="#cfe8ff" opacity="0.21"/>
<rect x="489" y="188" width="5" height="6" fill="#cfe8ff" opacity="0.33"/>
<rect x="498" y="188" width="5" height="6" fill="#cfe8ff" opacity="0.21"/>
<rect x="480" y="198" width="5" height="6" fill="#cfe8ff" opacity="0.33"/>
<rect x="489" y="198" width="5" height="6" fill="#cfe8ff" opacity="0.33"/>
<rect x="498" y="198" width="5" height="6" fill="#cfe8ff" opacity="0.33"/>
<rect x="480" y="208" width="5" height="6" fill="#cfe8ff" opacity="0.21"/>
<rect x="489" y="208" width="5" height="6" fill="#cfe8ff" opacity="0.33"/>
<rect x="498" y="208" width="5" height="6" fill="#cfe8ff" opacity="0.33"/>
<rect x="480" y="218" width="5" height="6" fill="#cfe8ff" opacity="0.21"/>
<rect x="489" y="218" width="5" height="6" fill="#cfe8ff" opacity="0.33"/>
<rect x="498" y="218" width="5" height="6" fill="#cfe8ff" opacity="0.21"/>
<rect x="480" y="228" width="5" height="6" fill="#cfe8ff" opacity="0.21"/>
<rect x="489" y="228" width="5" height="6" fill="#cfe8ff" opacity="0.33"/>
<rect x="498" y="228" width="5" height="6" fill="#cfe8ff" opacity="0.21"/>
<rect x="518" y="205" width="5" height="6" fill="#cfe8ff" opacity="0.21"/>
<rect x="527" y="205" width="5" height="6" fill="#cfe8ff" opacity="0.33"/>
<rect x="536" y="205" width="5" height="6" fill="#cfe8ff" opacity="0.33"/>
<rect x="518" y="215" width="5" height="6" fill="#cfe8ff" opacity="0.21"/>
<rect x="527" y="215" width="5" height="6" fill="#cfe8ff" opacity="0.21"/>
<rect x="536" y="215" width="5" height="6" fill="#cfe8ff" opacity="0.21"/>
<rect x="518" y="225" width="5" height="6" fill="#cfe8ff" opacity="0.21"/>
<rect x="527" y="225" width="5" height="6" fill="#cfe8ff" opacity="0.21"/>
<rect x="536" y="225" width="5" height="6" fill="#cfe8ff" opacity="0.21"/>
<rect x="557" y="192" width="5" height="6" fill="#cfe8ff" opacity="0.21"/>
<rect x="566" y="192" width="5" height="6" fill="#cfe8ff" opacity="0.21"/>
<rect x="575" y="192" width="5" height="6" fill="#cfe8ff" opacity="0.33"/>
<rect x="584" y="192" width="5" height="6" fill="#cfe8ff" opacity="0.21"/>
<rect x="557" y="202" width="5" height="6" fill="#cfe8ff" opacity="0.21"/>
<rect x="566" y="202" width="5" height="6" fill="#cfe8ff" opacity="0.33"/>
<rect x="575" y="202" width="5" height="6" fill="#cfe8ff" opacity="0.21"/>
<rect x="584" y="202" width="5" height="6" fill="#cfe8ff" opacity="0.33"/>
<rect x="557" y="212" width="5" height="6" fill="#cfe8ff" opacity="0.33"/>
<rect x="566" y="212" width="5" height="6" fill="#cfe8ff" opacity="0.33"/>
<rect x="575" y="212" width="5" height="6" fill="#cfe8ff" opacity="0.21"/>
<rect x="584" y="212" width="5" height="6" fill="#cfe8ff" opacity="0.21"/>
<rect x="557" y="222" width="5" height="6" fill="#cfe8ff" opacity="0.21"/>
<rect x="566" y="222" width="5" height="6" fill="#cfe8ff" opacity="0.21"/>
<rect x="575" y="222" width="5" height="6" fill="#cfe8ff" opacity="0.21"/>
<rect x="584" y="222" width="5" height="6" fill="#cfe8ff" opacity="0.33"/>
<rect x="602" y="177" width="5" height="6" fill="#cfe8ff" opacity="0.21"/>
<rect x="611" y="177" width="5" height="6" fill="#cfe8ff" opacity="0.21"/>
<rect x="620" y="177" width="5" height="6" fill="#cfe8ff" opacity="0.21"/>
<rect x="602" y="187" width="5" height="6" fill="#cfe8ff" opacity="0.21"/>
<rect x="611" y="187" width="5" height="6" fill="#cfe8ff" opacity="0.33"/>
<rect x="620" y="187" width="5" height="6" fill="#cfe8ff" opacity="0.21"/>
<rect x="602" y="197" width="5" height="6" fill="#cfe8ff" opacity="0.33"/>
<rect x="611" y="197" width="5" height="6" fill="#cfe8ff" opacity="0.21"/>
<rect x="620" y="197" width="5" height="6" fill="#cfe8ff" opacity="0.21"/>
<rect x="602" y="207" width="5" height="6" fill="#cfe8ff" opacity="0.21"/>
<rect x="611" y="207" width="5" height="6" fill="#cfe8ff" opacity="0.33"/>
<rect x="620" y="207" width="5" height="6" fill="#cfe8ff" opacity="0.33"/>
<rect x="602" y="217" width="5" height="6" fill="#cfe8ff" opacity="0.48"/>
<rect x="611" y="217" width="5" height="6" fill="#cfe8ff" opacity="0.21"/>
<rect x="620" y="217" width="5" height="6" fill="#cfe8ff" opacity="0.21"/>
<rect x="602" y="227" width="5" height="6" fill="#cfe8ff" opacity="0.21"/>
<rect x="611" y="227" width="5" height="6" fill="#cfe8ff" opacity="0.21"/>
<rect x="620" y="227" width="5" height="6" fill="#cfe8ff" opacity="0.21"/>
<rect x="641" y="197" width="5" height="6" fill="#cfe8ff" opacity="0.21"/>
<rect x="650" y="197" width="5" height="6" fill="#cfe8ff" opacity="0.21"/>
<rect x="659" y="197" width="5" height="6" fill="#cfe8ff" opacity="0.21"/>
<rect x="668" y="197" width="5" height="6" fill="#cfe8ff" opacity="0.21"/>
<rect x="641" y="207" width="5" height="6" fill="#cfe8ff" opacity="0.21"/>
<rect x="650" y="207" width="5" height="6" fill="#cfe8ff" opacity="0.21"/>
<rect x="659" y="207" width="5" height="6" fill="#cfe8ff" opacity="0.21"/>
<rect x="668" y="207" width="5" height="6" fill="#cfe8ff" opacity="0.21"/>
<rect x="641" y="217" width="5" height="6" fill="#cfe8ff" opacity="0.21"/>
<rect x="650" y="217" width="5" height="6" fill="#cfe8ff" opacity="0.21"/>
<rect x="659" y="217" width="5" height="6" fill="#cfe8ff" opacity="0.21"/>
<rect x="668" y="217" width="5" height="6" fill="#cfe8ff" opacity="0.21"/>
<rect x="641" y="227" width="5" height="6" fill="#cfe8ff" opacity="0.21"/>
<rect x="650" y="227" width="5" height="6" fill="#cfe8ff" opacity="0.33"/>
<rect x="659" y="227" width="5" height="6" fill="#cfe8ff" opacity="0.33"/>
<rect x="668" y="227" width="5" height="6" fill="#cfe8ff" opacity="0.33"/>
<rect x="688" y="201" width="5" height="6" fill="#cfe8ff" opacity="0.33"/>
<rect x="697" y="201" width="5" height="6" fill="#cfe8ff" opacity="0.48"/>
<rect x="706" y="201" width="5" height="6" fill="#cfe8ff" opacity="0.48"/>
<rect x="688" y="211" width="5" height="6" fill="#cfe8ff" opacity="0.60"/>
<rect x="697" y="211" width="5" height="6" fill="#cfe8ff" opacity="0.60"/>
<rect x="706" y="211" width="5" height="6" fill="#cfe8ff" opacity="0.60"/>
<rect x="688" y="221" width="5" height="6" fill="#cfe8ff" opacity="0.60"/>
<rect x="697" y="221" width="5" height="6" fill="#cfe8ff" opacity="0.21"/>
<rect x="706" y="221" width="5" height="6" fill="#cfe8ff" opacity="0.48"/>
<rect x="730" y="211" width="5" height="6" fill="#cfe8ff" opacity="0.48"/>
<rect x="739" y="211" width="5" height="6" fill="#cfe8ff" opacity="0.48"/>
<rect x="748" y="211" width="5" height="6" fill="#cfe8ff" opacity="0.33"/>
<rect x="730" y="221" width="5" height="6" fill="#cfe8ff" opacity="0.48"/>
<rect x="739" y="221" width="5" height="6" fill="#cfe8ff" opacity="0.48"/>
<rect x="748" y="221" width="5" height="6" fill="#cfe8ff" opacity="0.48"/>
<g filter="url(#shadow)">
<text class="sky-name" x="40" y="74">Filip Bozhinovski</text>
<text class="sky-role" x="42" y="106">Product Engineer · Frontend-first · TypeScript &amp; React</text>
<text class="sky-meta" x="42" y="132">Skopje, North Macedonia · @ssbarbee</text>
<text class="sky-meta" x="976" y="190" text-anchor="end">Skopje · 8 Oct, 14:15</text>
<text class="sky-meta" x="976" y="208" text-anchor="end">23°C · Partly cloudy</text>
<text class="sky-meta" x="976" y="226" text-anchor="end">Air quality: Good</text>
</g>
</g>
</svg>
