<svg xmlns="http://www.w3.org/2000/svg" width="400" height="150" viewBox="0 0 400 150" fill="none" role="img" aria-labelledby="title desc">
<title id="title">iap-apple</title>
<desc id="desc">📦🚀 Integration of Apples  validation service for App Store Receipts, written in Typescript, available for NodeJS environments.</desc>
<style>
  .header { font: 600 18px 'Segoe UI', Ubuntu, 'Helvetica Neue', Sans-Serif; fill: #0b7285; }
  .stat { font: 600 14px 'Segoe UI', Ubuntu, 'Helvetica Neue', Sans-Serif; fill: #1f2328; }
  .rank { font: 800 24px 'Segoe UI', Ubuntu, 'Helvetica Neue', Sans-Serif; fill: #1f2328; }
  .description { font: 400 13px 'Segoe UI', Ubuntu, 'Helvetica Neue', Sans-Serif; fill: #1f2328; }
  .label { font: 400 12px 'Segoe UI', Ubuntu, 'Helvetica Neue', Sans-Serif; fill: #1f2328; }
  .small { font: 400 10px 'Segoe UI', Ubuntu, 'Helvetica Neue', Sans-Serif; fill: #59636e; }
  .name { font: 700 40px 'Segoe UI', Ubuntu, 'Helvetica Neue', Sans-Serif; fill: #1f2328; }
  .role { font: 400 18px 'Segoe UI', Ubuntu, 'Helvetica Neue', Sans-Serif; fill: #0b7285; }
  .meta { font: 400 14px 'Segoe UI', Ubuntu, 'Helvetica Neue', Sans-Serif; fill: #59636e; }
  .temperature { font: 600 48px 'Segoe UI', Ubuntu, 'Helvetica Neue', Sans-Serif; fill: #1f2328; }
  .muted { fill: #59636e; }
  .strong { font-weight: 600; }
  .icon { fill: #0969da; }
</style>
<rect x="0.5" y="0.5" rx="6" width="399" height="149" fill="#f6f8fa" stroke="#d1d9e0"/>
<path class="icon" fill-rule="evenodd" transform="translate(25, 22)" d="M2 2.5A2.5 2.5 0 014.5 0h8.75a.75.75 0 01.75.75v12.5a.75.75 0 01-.75.75h-2.5a.75.75 0 110-1.5h1.75v-2h-8a1 1 0 00-.714 1.7.75.75 0 01-1.072 1.05A2.495 2.495 0 012 11.5v-9zm10.5-1V9h-8c-.356 0-.694.074-1 .208V2.5a1 1 0 011-1h8zM5 12.25v3.25a.25.25 0 00.4.2l1.45-1.087a.25.25 0 01.3 0L8.6 15.7a.25.25 0 00.4-.2v-3.25a.25.25 0 00-.25-.25h-3.5a.25.25 0 00-.25.25z"/>
<text class="header" x="50" y="35">iap-apple</text>
<text class="description" x="25" y="50"><tspan x="25" dy="1.2em">📦🚀 Integration of Apples  validation service for</tspan><tspan x="25" dy="1.2em">App Store Receipts, written in Typescript, available</tspan><tspan x="25" dy="1.2em">for NodeJS environments.</tspan></text>
<circle cx="31" cy="124" r="6" fill="#3178c6"/>
<text class="label" x="43" y="128">TypeScript</text>
<path class="icon" fill-rule="evenodd" transform="translate(133, 116)" d="M8 .25a.75.75 0 01.673.418l1.882 3.815 4.21.612a.75.75 0 01.416 1.279l-3.046 2.97.719 4.192a.75.75 0 01-1.088.791L8 12.347l-3.766 1.98a.75.75 0 01-1.088-.79l.72-4.194L.818 6.374a.75.75 0 01.416-1.28l4.21-.611L7.327.668A.75.75 0 018 .25zm0 2.445L6.615 5.5a.75.75 0 01-.564.41l-3.097.45 2.24 2.184a.75.75 0 01.216.664l-.528 3.084 2.769-1.456a.75.75 0 01.698 0l2.77 1.456-.53-3.084a.75.75 0 01.216-.664l2.24-2.183-3.096-.45a.75.75 0 01-.564-.41L8 2.694v.001z"/>
<text class="label" x="153" y="128">7</text>
<path class="icon" fill-rule="evenodd" transform="translate(180, 116)" d="M5 3.25a.75.75 0 11-1.5 0 .75.75 0 011.5 0zm0 2.122a2.25 2.25 0 10-1.5 0v.878A2.25 2.25 0 005.75 8.5h1.5v2.128a2.251 2.251 0 101.5 0V8.5h1.5a2.25 2.25 0 002.25-2.25v-.878a2.25 2.25 0 10-1.5 0v.878a.75.75 0 01-.75.75h-4.5A.75.75 0 015 6.25v-.878zm3.75 7.378a.75.75 0 11-1.5 0 .75.75 0 011.5 0zm3-8.75a.75.75 0 100-1.5.75.75 0 000 1.5z"/>
<text class="label" x="200" y="128">0</text>
</svg>
