<svg width="100" height="100" viewBox="0 0 100 100" fill="none" xmlns="http://www.w3.org/2000/svg">
<path d="M43.1063 89.9268C41.7979 89.8049 40.2575 89.5807 39.6833 89.4286C39.1091 89.2766 38.3993 89.1521 38.1061 89.1521C37.8128 89.1521 37.2886 89.0327 36.9411 88.8868C36.5937 88.7409 35.127 88.2277 33.6819 87.7463C31.5514 87.0368 30.7639 86.68 29.5188 85.8607C28.6742 85.3049 27.2186 84.3929 26.284 83.8342C22.4742 81.5564 19.4096 78.5171 16.3956 74.0278C14.2966 70.9013 12.2973 65.8976 11.304 61.285C11.0528 60.1188 10.9944 59.1044 11.0004 56.0174C11.0073 52.5144 11.0476 52.002 11.4811 49.9002C12.1804 46.5103 13.2952 43.2676 14.7156 40.4919C16.088 37.8101 16.6756 36.8232 17.388 36.0032C17.967 35.3366 17.9841 35.0032 17.5421 32.993C16.9171 30.1503 16.8038 29.0898 16.895 26.9373C16.9719 25.1215 17.0669 24.5872 17.5958 22.996C18.3616 20.6926 19.0754 19.3434 20.1508 18.1666C21.0206 17.2149 22.5698 16.0667 23.3104 15.8249C24.5354 15.4248 27.4631 15.9436 29.3426 16.8938C30.377 17.4168 32.4209 19.3591 33.4542 20.8011C33.8727 21.3852 34.3155 21.8631 34.4381 21.8631C34.5607 21.8631 35.3719 21.5885 36.2408 21.253C38.4105 20.415 41.878 19.5672 44.4913 19.2357C45.6921 19.0834 47.1891 18.8738 47.8179 18.7701C50.116 18.3909 55.5181 18.8905 59.1327 19.8165C59.8538 20.0012 60.4999 20.0852 60.5804 20.0048C60.6603 19.9249 60.9043 19.3483 61.1226 18.7236C61.3409 18.0988 61.6396 17.4218 61.7864 17.219C61.9331 17.0163 62.3082 16.4681 62.6199 16.0008C63.4686 14.7284 65.92 12.5033 67.482 11.5876C69.448 10.4349 71.1578 9.9173 72.6905 10.0107C74.2409 10.1052 75.2471 10.5889 76.5008 11.8426C79.5991 14.9409 79.8434 20.542 77.1775 27.3604C76.8026 28.3193 76.4959 29.2025 76.4959 29.3231C76.4959 29.4437 76.9647 30.0512 77.5378 30.673C79.0708 32.3365 80.7965 34.6128 81.96 36.5061C82.5243 37.4243 83.065 38.1756 83.1617 38.1756C83.2583 38.1756 84.0037 37.9468 84.8181 37.6672C86.1778 37.2003 86.3962 37.171 87.4903 37.3084C88.1456 37.3907 88.8464 37.5461 89.0475 37.6537C89.7482 38.0287 90.8569 38.8271 91.2283 39.2243C91.7534 39.7857 92.2971 41.0863 92.4119 42.0556C92.5171 42.9437 92.1409 44.5659 91.6566 45.3123C91.505 45.5459 91.186 46.1172 90.9477 46.5817C90.4357 47.5797 88.5841 49.0745 87.4753 49.385L86.7679 49.583L86.772 53.2675C86.7761 56.9336 86.6041 58.7465 86.0596 60.7752C85.9217 61.2892 85.7484 61.9774 85.6747 62.3045C85.6009 62.6316 85.272 63.7021 84.9437 64.6834C83.2965 69.6068 80.407 74.1924 76.3437 78.3317C72.9044 81.8354 70.7585 83.3819 66.1696 85.6643C61.586 87.944 59.0811 88.869 55.2557 89.6946C53.1918 90.1401 46.7212 90.2637 43.1063 89.9268ZM55.2557 89.5247C58.7927 88.7613 61.1391 87.9012 65.451 85.7873C68.7626 84.1638 70.2853 83.2728 72.2283 81.8216C75.423 79.4356 79.4703 74.8993 81.6823 71.2254C83.2518 68.6187 84.9346 64.6845 85.4981 62.3045C85.5755 61.9774 85.7517 61.2892 85.8897 60.7752C86.4422 58.7167 86.6062 56.9471 86.5933 53.1846L86.5803 49.4172L87.1346 49.3132C87.8188 49.1848 89.553 48.0452 90.2197 47.2858C91.0198 46.3746 92.1344 43.9679 92.2407 42.9219C92.359 41.7587 91.8511 40.2155 91.0925 39.4328C89.9587 38.263 88.8314 37.6467 87.5257 37.4828C86.3868 37.3397 86.2053 37.3647 84.841 37.8521C84.0362 38.1395 83.2726 38.3873 83.1441 38.4026C83.0156 38.4179 82.4364 37.6597 81.8569 36.7177C80.6486 34.7535 79.1316 32.7171 77.4762 30.8371C76.8436 30.1186 76.326 29.4129 76.326 29.2687C76.326 29.1246 76.6324 28.2376 77.0068 27.2977C80.1799 19.3332 79.2373 13.1448 74.4555 10.5471C73.9968 10.2979 73.515 10.2251 72.3328 10.2264C70.5685 10.2284 69.5834 10.5649 67.2986 11.9461C64.7046 13.5143 62.3077 16.2159 61.3644 18.6346C61.1639 19.1486 60.9287 19.7495 60.8417 19.97C60.6615 20.4268 60.8664 20.4397 57.6346 19.7677C54.1483 19.0429 49.1803 18.7369 47.3992 19.1373C47.0007 19.2269 45.8896 19.3792 44.9302 19.4757C42.3947 19.7307 40.0089 20.261 37.4988 21.1273C34.1989 22.2663 34.3661 22.2719 33.3971 20.9881C30.819 17.5721 28.1467 15.9838 24.8166 15.8881C23.6096 15.8534 23.4504 15.8916 22.5337 16.4355C20.3053 17.7579 18.8164 19.8493 17.6852 23.2464C17.2458 24.5659 17.1403 25.1945 17.0658 26.9373C16.9736 29.0907 17.0864 30.1476 17.712 32.993C18.1679 35.0663 18.1455 35.3582 17.467 36.1929C17.1503 36.5824 16.448 37.7041 15.9063 38.6854C13.6133 42.8397 12.5113 45.7447 11.6521 49.9002C11.2171 52.0041 11.1772 52.511 11.1703 56.0174C11.1624 60.0695 11.2697 60.9291 12.1826 64.1249C13.0438 67.1398 15.1325 71.8177 16.5669 73.9441C19.6313 78.4871 22.6273 81.4663 26.2438 83.567C26.9201 83.9598 28.1234 84.7161 28.9178 85.2477C29.7122 85.7792 30.6794 86.3758 31.0672 86.5734C32.1749 87.1378 37.2288 88.8241 38.2635 88.9746C38.7775 89.0493 39.5421 89.2065 39.9627 89.324C42.5342 90.042 52.2671 90.1697 55.2557 89.5247ZM58.2488 65.0082C58.0007 64.8131 57.6908 64.4466 57.5601 64.194C57.1876 63.4736 56.7751 60.6416 56.8641 59.4158C56.9082 58.8083 56.9467 58.2571 56.9496 58.1908C56.9576 58.0086 57.8612 57.2068 58.0585 57.2068C58.2934 57.2068 58.6256 58.3178 58.4742 58.5968C58.372 58.7852 58.5261 59.8757 58.9201 61.7522C58.9643 61.9625 59.0754 62.1346 59.1671 62.1346C59.3551 62.1346 59.3634 60.8623 59.1891 58.7647C59.1245 57.986 59.135 57.3097 59.2125 57.2618C59.29 57.2139 59.6422 57.3658 59.9952 57.5994C60.5899 57.9929 60.6593 58.1273 60.9407 59.4296C61.4427 61.7531 61.0486 64.2455 60.0558 65.0264C59.5028 65.4614 58.8161 65.4545 58.2488 65.0082ZM30.3223 62.2222C29.5736 61.8967 28.1594 60.546 27.8212 59.8334C27.4145 58.9763 27.3947 58.149 27.7413 56.495C28.124 54.6687 28.5424 53.8296 29.5531 52.8612C30.42 52.0306 30.9983 51.8074 32.6777 51.6555C33.5553 51.5761 34.0644 51.6328 34.985 51.9124C36.4399 52.3543 36.6997 52.7351 36.3098 53.8544C36.0151 54.7004 36.0021 54.8279 36.2106 54.8279C36.2964 54.8279 36.5337 54.5575 36.738 54.2271C37.0356 53.7455 37.1564 53.6653 37.3466 53.8231C37.6178 54.0481 37.67 54.8279 37.4139 54.8279C37.3204 54.8279 37.2439 54.9077 37.2439 55.0053C37.2439 55.1029 37.3778 55.1602 37.5413 55.1327C37.7398 55.0994 37.8567 55.2099 37.893 55.4651C37.9228 55.6754 37.8655 55.8475 37.7655 55.8475C37.6656 55.8475 37.5838 55.9291 37.5838 56.0288C37.5838 56.1289 37.7267 56.1648 37.9026 56.109C38.1365 56.0348 38.2489 56.1108 38.3251 56.3949C38.5203 57.1238 38.433 57.6825 37.9308 58.9164C37.3866 60.2536 36.5273 61.2834 35.5228 61.8021C34.3026 62.4322 31.3533 62.6704 30.3223 62.2222ZM32.6529 60.7454C32.8146 60.2229 33.2194 59.232 33.5525 58.5435C33.8856 57.8551 34.2063 57.1006 34.2652 56.867C34.3702 56.4497 34.3646 56.451 33.9489 56.9421C33.5237 57.4446 31.9764 61.0662 31.9764 61.5592C31.9764 62.1258 32.3736 61.648 32.6529 60.7454ZM33.8455 61.1596C33.8455 61.0083 34.2781 60.0181 34.8069 58.9592C35.3357 57.9003 35.7128 56.9784 35.6449 56.9105C35.4623 56.7279 34.9273 57.5037 34.503 58.5662C34.2977 59.0802 34.0594 59.5928 33.9734 59.7053C33.7443 60.0048 33.3452 61.4077 33.4572 61.5197C33.6119 61.6744 33.8455 61.4579 33.8455 61.1596ZM36.9569 59.7981C37.4627 58.9861 37.6169 58.5662 37.4096 58.5662C37.1954 58.5662 36.2244 59.9097 36.2244 60.206C36.2244 60.6268 36.5556 60.4424 36.9569 59.7981ZM29.1772 59.2787C29.1248 59.2264 28.9877 59.2786 28.8725 59.3947C28.7059 59.5626 28.7254 59.5821 28.9676 59.4899C29.1352 59.426 29.2295 59.331 29.1772 59.2787ZM29.7674 59.2459C29.7674 59.1524 29.6909 59.076 29.5975 59.076C29.504 59.076 29.4275 59.1524 29.4275 59.2459C29.4275 59.3394 29.504 59.4158 29.5975 59.4158C29.6909 59.4158 29.7674 59.3394 29.7674 59.2459ZM36.2244 58.5474C36.2244 58.275 35.9003 58.3892 35.7206 58.725C35.4224 59.2822 35.5336 59.5278 35.8902 59.0996C36.074 58.879 36.2244 58.6305 36.2244 58.5474ZM28.408 58.2056C28.408 58.1235 28.2551 58.0564 28.0682 58.0564C27.7416 58.0564 27.6075 58.3887 27.8401 58.6214C27.9688 58.75 28.408 58.4284 28.408 58.2056ZM30.2499 57.9635C30.3583 57.7254 30.4471 57.4925 30.4471 57.4458C30.4471 57.2544 29.6077 57.9882 29.6028 58.1839C29.5933 58.5629 30.0472 58.4083 30.2499 57.9635ZM31.913 54.8067C32.3915 53.8083 32.4363 53.6228 32.188 53.6686C31.824 53.7359 30.6158 56.0543 30.6199 56.6778C30.6227 57.1203 30.624 57.1199 30.982 56.5607C31.1797 56.2521 31.5986 55.4627 31.913 54.8067ZM33.3303 56.1123C33.3274 56.0134 33.2127 56.0809 33.0755 56.2623C32.9382 56.4437 32.8284 56.6731 32.8314 56.772C32.8344 56.871 32.9491 56.8035 33.0863 56.6221C33.2235 56.4407 33.3333 56.2113 33.3303 56.1123ZM28.5779 55.7439C28.5779 55.6292 28.6281 55.3953 28.6895 55.2242C28.7597 55.028 28.6655 55.0799 28.4346 55.3645C28.233 55.6129 28.0706 55.9952 28.0736 56.2141C28.0788 56.6007 28.0861 56.6026 28.3285 56.2823C28.4657 56.1009 28.5779 55.8586 28.5779 55.7439ZM29.3936 56.1533C29.6711 55.8758 29.6498 55.6775 29.3426 55.6775C29.2024 55.6775 29.0877 55.7095 29.0877 55.7486C29.0877 55.7877 29.0413 55.9406 28.9846 56.0884C28.8629 56.4056 29.1032 56.4437 29.3936 56.1533ZM34.8032 55.729C34.7336 55.6594 34.6055 55.7149 34.5186 55.8524C34.2569 56.2661 34.3354 56.4499 34.6425 56.1428C34.8005 55.9848 34.8728 55.7986 34.8032 55.729ZM30.0633 54.3649C30.1309 54.1621 29.3225 53.9181 29.0799 54.0681C28.9907 54.1232 28.9178 54.2594 28.9178 54.3707C28.9177 54.6197 29.9802 54.6143 30.0633 54.3649ZM33.5057 53.3975C33.5057 53.3584 33.5521 53.2055 33.6088 53.0576C33.7499 52.6899 33.4559 52.7201 32.9722 53.1231L32.5711 53.4572L33.0384 53.4629C33.2954 53.466 33.5057 53.4366 33.5057 53.3975ZM34.865 52.5139C34.865 52.3737 34.7886 52.3063 34.6951 52.3641C34.6017 52.4218 34.5252 52.5838 34.5252 52.724C34.5252 52.8641 34.6017 52.9316 34.6951 52.8738C34.7886 52.8161 34.865 52.6541 34.865 52.5139ZM33.1658 52.2791C33.1658 52.1856 33.1321 52.1092 33.0909 52.1092C33.0497 52.1092 32.9687 52.1856 32.9109 52.2791C32.8532 52.3726 32.8869 52.449 32.9859 52.449C33.0848 52.449 33.1658 52.3726 33.1658 52.2791ZM61.8826 58.3594C61.8826 58.0041 63.6443 57.6471 64.1257 57.9048C64.654 58.1875 64.2801 58.3915 63.0175 58.5094C62.0729 58.5976 61.8826 58.5724 61.8826 58.3594ZM64.6014 57.89C64.6014 57.6819 65.537 57.2005 67.2626 56.5205C67.9952 56.2319 68.8883 55.8037 69.2473 55.569C69.6064 55.3343 69.9385 55.1806 69.9853 55.2275C70.155 55.3972 68.5563 56.4217 66.8609 57.23C65.1373 58.0517 64.6014 58.2082 64.6014 57.89ZM85.5018 48.5509C85.1747 48.4827 84.6012 48.278 84.2273 48.0958C83.6533 47.8162 83.5553 47.693 83.5966 47.3032C83.6308 46.9799 83.5672 46.8416 83.3842 46.8416C83.2404 46.8416 83.1229 46.9563 83.1229 47.0965C83.1229 47.511 82.8598 47.3926 82.2286 46.6939C81.0569 45.397 80.8956 43.868 81.7368 42.0332C82.355 40.6847 83.6272 39.1433 84.5001 38.6852C85.2618 38.2855 86.6003 38.0979 87.6104 38.2494C88.4486 38.3751 90.081 39.5652 90.0866 40.0547C90.0883 40.2004 90.2019 40.468 90.3391 40.6495C90.7236 41.1578 90.6719 41.5612 90.2368 41.4474C89.9746 41.3788 89.8973 41.4185 89.9578 41.5907C90.0037 41.7217 90.1848 41.8153 90.3603 41.7986C90.5358 41.782 90.7292 41.8489 90.7899 41.9472C90.9472 42.2017 90.8422 43.7417 90.6504 43.9953C90.562 44.1122 90.4802 44.3884 90.4687 44.6091C90.4572 44.8299 90.3389 45.1357 90.2059 45.2888C90.0729 45.4419 89.9928 45.6452 90.028 45.7404C90.1165 45.9806 88.2489 47.9247 87.6258 48.2411C86.9308 48.5939 86.2115 48.6988 85.5018 48.5509ZM86.1508 47.9903C86.0822 47.5092 85.5018 47.3573 85.5018 47.8204C85.5018 48.2052 85.6417 48.3709 85.9667 48.3709C86.1165 48.3709 86.1849 48.2294 86.1508 47.9903ZM89.5799 40.5545C89.5799 40.461 89.4989 40.3846 89.3999 40.3846C89.301 40.3846 89.2672 40.461 89.325 40.5545C89.3828 40.6479 89.4637 40.7244 89.505 40.7244C89.5462 40.7244 89.5799 40.6479 89.5799 40.5545ZM86.5213 40.0293C86.5213 39.9502 86.4066 39.9295 86.2664 39.9833C86.1262 40.0371 86.0115 40.197 86.0115 40.3386C86.0115 40.5482 86.0589 40.5568 86.2664 40.3846C86.4066 40.2682 86.5213 40.1083 86.5213 40.0293ZM46.0799 45.3437C46.0799 44.5193 47.2659 41.9213 48.3137 40.4505C49.317 39.0422 49.756 38.552 50.7527 37.7274C53.2514 35.6602 55.8535 34.3471 59.0179 33.5562C61.2557 32.997 65.6477 33.0788 66.4116 33.6939C66.6958 33.9227 66.6372 33.9374 65.7908 33.849C60.1898 33.2642 55.6791 34.578 51.2379 38.0877C50.3394 38.7978 49.6487 39.5261 49.1247 40.3158C47.9595 42.0719 47.0044 43.7694 46.6687 44.6806C46.3424 45.5664 46.0799 45.862 46.0799 45.3437ZM57.5738 43.9481C56.9446 43.7596 56.4451 43.3015 56.4451 42.913C56.4451 42.4823 57.3422 41.5082 58.2038 41.0032C58.8866 40.6031 61.1962 39.9137 62.1065 39.8384C62.6791 39.791 63.9175 40.3778 63.9412 40.7077C64.0449 42.1457 62.6738 43.427 60.5497 43.8772C59.2923 44.1438 58.3051 44.1673 57.5738 43.9481ZM15.839 43.2732C15.839 43.1331 15.9131 42.9037 16.0037 42.7635C16.1501 42.5369 16.1684 42.5369 16.1684 42.7635C16.1684 42.9037 16.0943 43.1331 16.0037 43.2732C15.8573 43.4998 15.839 43.4998 15.839 43.2732ZM16.5135 41.3608C16.5135 41.2206 16.6282 41.0107 16.7684 40.8943C16.9757 40.7223 17.0232 40.7304 17.0232 40.9377C17.0232 41.0779 16.9085 41.2878 16.7684 41.4041C16.5611 41.5761 16.5135 41.568 16.5135 41.3608ZM17.1932 39.7374C17.1932 39.5273 17.6644 38.9293 17.7542 39.0255C17.8827 39.1631 17.5595 39.8748 17.3686 39.8748C17.2721 39.8748 17.1932 39.813 17.1932 39.7374ZM17.8777 38.6004C17.8763 38.5069 18.027 38.2011 18.2127 37.9207C18.3984 37.6403 18.5491 37.5256 18.5476 37.6658C18.5447 37.9476 17.882 38.8722 17.8777 38.6004ZM24.1777 37.4842C23.0653 35.6551 22.1927 31.414 22.3305 28.5068C22.4599 25.7765 23.1935 24.3309 24.9813 23.2832C25.8331 22.784 26.5407 22.814 27.891 23.4065C29.2093 23.985 33.3357 28.5613 33.3357 29.4449C33.3357 29.551 33.2128 29.7399 33.0625 29.8647C32.8314 30.0564 32.7563 30.0465 32.5765 29.8005C32.1032 29.1533 31.3636 29.7131 31.7899 30.3958C31.9577 30.6645 31.9459 30.8052 31.7278 31.138C31.4012 31.6366 30.9572 31.6718 30.8361 31.2088C30.7873 31.0219 30.6368 30.8689 30.5018 30.8689C30.3083 30.8689 30.2799 31.0259 30.3674 31.6098C30.4675 32.2772 30.4253 32.4112 29.9412 32.9625C29.4784 33.4896 29.3314 33.56 28.881 33.4699C28.3838 33.3705 28.3636 33.3875 28.471 33.8155C28.5617 34.177 28.4722 34.3878 28.0168 34.8847L27.4496 35.5036L27.0693 34.859C26.7288 34.2819 26.6619 34.2414 26.4304 34.473C26.2107 34.6926 26.2035 34.8376 26.3823 35.4346C26.5419 35.9672 26.5461 36.2403 26.3996 36.5618C26.1549 37.099 25.9651 37.0988 25.7202 36.5613C25.6137 36.3277 25.408 36.1365 25.263 36.1365C25.0524 36.1365 25.009 36.3148 25.047 37.0225C25.0859 37.7479 25.0415 37.9193 24.8017 37.9686C24.6162 38.0068 24.3875 37.8292 24.1777 37.4842ZM72.762 26.3713C72.0931 25.5653 67.3501 22.6994 65.2811 21.8509C64.767 21.6401 64.2777 21.4075 64.1936 21.334C63.955 21.1255 65.4127 19.0254 66.6523 17.7916C67.9008 16.549 69.5788 15.485 70.5482 15.3212C71.3699 15.1823 72.4359 15.4702 73.0671 16.0013C73.9531 16.7468 75.1489 20.3041 74.8086 21.1821C74.7177 21.4164 74.6112 21.9905 74.5719 22.4578C74.5326 22.9251 74.3759 23.6035 74.2237 23.9654C74.0716 24.3273 73.9471 24.7428 73.9471 24.8888C73.9471 25.2399 73.2742 26.6209 73.1031 26.6209C73.0294 26.6209 72.8759 26.5086 72.762 26.3713ZM18.4441 24.1146C18.5919 23.0062 20.0767 20.0063 20.9423 19.0673C21.855 18.0771 23.2271 17.2947 24.367 17.1145C25.0772 17.0023 25.4949 17.043 26.3689 17.3097C26.9764 17.4951 27.5499 17.7265 27.6434 17.824C27.7605 17.9461 27.6814 17.9614 27.3885 17.8731C27.1548 17.8027 26.3858 17.7084 25.6795 17.6635C24.5202 17.59 24.2887 17.6311 23.3005 18.0864C22.6985 18.3639 21.923 18.8874 21.5773 19.2499C20.7271 20.1414 19.3117 22.559 18.8785 23.8597C18.684 24.4438 18.4824 24.9217 18.4306 24.9217C18.3788 24.9217 18.3849 24.5585 18.4441 24.1146ZM35.795 23.5549C35.6878 23.3814 36.2534 23.0525 36.6589 23.0525C36.8847 23.0525 36.9039 23.1029 36.7494 23.2891C36.504 23.5848 35.9149 23.7489 35.795 23.5549ZM37.074 23.0626C37.074 22.9746 37.1567 22.8516 37.2577 22.7892C37.6549 22.5437 39.9132 22.038 41.7469 21.7839C42.2142 21.7191 42.7494 21.6039 42.9363 21.5278C43.3949 21.341 48.3103 20.6779 49.4783 20.6452C50.6209 20.6132 52.689 20.8471 52.796 21.0204C52.8391 21.09 51.7852 21.141 50.4541 21.1338C47.2745 21.1164 44.663 21.5073 38.765 22.8835C37.0928 23.2737 37.074 23.2757 37.074 23.0626ZM66.0457 14.0467C66.1035 13.9532 66.1844 13.8768 66.2257 13.8768C66.2669 13.8768 66.3006 13.9532 66.3006 14.0467C66.3006 14.1401 66.2196 14.2166 66.1206 14.2166C66.0217 14.2166 65.9879 14.1401 66.0457 14.0467ZM67.6424 12.9224C69.6719 11.5557 71.4386 11.0838 73.0281 11.484C74.0924 11.752 76.3917 13.5369 75.6726 13.5369C75.5937 13.5369 75.3834 13.3757 75.2053 13.1787C75.0273 12.9817 74.4993 12.6192 74.032 12.3731C73.2978 11.9865 72.9747 11.9256 71.6531 11.9242C70.3232 11.9229 69.9798 11.9877 69.0193 12.4217C68.4119 12.6962 67.7119 13.0595 67.4638 13.2289C67.2157 13.3983 66.9491 13.5369 66.8714 13.5369C66.7936 13.5369 67.1405 13.2604 67.6424 12.9224Z" fill="#AD9686"/>
<path d="M42.5966 89.4176C41.2882 89.2966 39.8736 89.1023 39.453 88.9858C39.0325 88.8692 38.306 88.7132 37.8388 88.639C37.3715 88.5649 35.6673 88.0479 34.0517 87.4901C31.6709 86.6682 30.8344 86.2898 29.6379 85.4935C28.8259 84.9532 27.395 84.0537 26.4582 83.4947C22.6742 81.237 19.7313 78.3201 16.7355 73.8579C14.3185 70.2576 12.0627 64.2006 11.564 59.9715C11.4453 58.9653 11.4077 57.0273 11.466 54.9261C11.5756 50.9774 11.9712 48.6719 13.1444 45.1424C14.0724 42.3509 16.5477 37.4725 17.6277 36.3065C18.3447 35.5324 18.4101 35.0867 18.0458 33.4564C17.4305 30.7032 17.3228 29.6388 17.3968 27.0442C17.4631 24.7214 17.5179 24.3554 18.0192 22.8911C19.0442 19.897 20.1799 18.2604 22.1893 16.8817L23.2255 16.1707L24.9247 16.2172C27.6198 16.2909 29.3181 16.9875 31.1868 18.7857C31.8289 19.4035 32.7031 20.3962 33.1296 20.9917C34.2441 22.5479 34.5352 22.6303 36.4306 21.9256C37.2712 21.6131 38.2169 21.329 38.5324 21.2943C38.8478 21.2595 39.2031 21.1517 39.3219 21.0547C39.8978 20.5844 45.1663 19.5919 47.7792 19.4614C51.304 19.2853 55.946 19.6589 58.8499 20.3524C60.6026 20.7709 60.9294 20.6703 61.2107 19.6257C61.4658 18.6784 62.1712 17.1053 62.3409 17.1053C62.4163 17.1053 62.6621 16.7583 62.887 16.3343C63.4631 15.2483 66.0004 12.8957 67.6185 11.947C69.6823 10.7371 70.7412 10.4338 72.6547 10.5045C74.1931 10.5613 74.2798 10.5861 75.233 11.243C77.3453 12.6985 78.346 14.8027 78.493 18.0981C78.6336 21.2487 78.1101 24.0502 76.751 27.4208C76.4238 28.2321 76.1561 29.079 76.1561 29.3028C76.1561 29.5676 76.5468 30.1346 77.2747 30.9265C78.8236 32.6115 80.6981 35.1212 81.8528 37.0562C82.3875 37.9523 82.8824 38.6854 82.9526 38.6854C83.0228 38.6854 83.4053 38.5707 83.8026 38.4305C84.7861 38.0835 84.8045 38.1022 84.0304 38.663C82.9649 39.4349 81.9932 40.6944 81.4321 42.0312C80.533 44.1729 80.7818 45.5528 82.3453 47.0965C83.942 48.6731 85.9125 49.2575 87.4957 48.6241C88.265 48.3163 90.3372 46.2504 90.4767 45.6522C90.5313 45.4185 90.6679 44.9215 90.7804 44.5477C90.8929 44.1738 91.0191 43.3978 91.0608 42.8232C91.1294 41.8801 91.1768 41.7707 91.5478 41.6997C91.9436 41.6241 91.9589 41.657 91.9589 42.5869C91.9589 43.7086 91.5716 44.9789 91.0991 45.4064C90.9178 45.5706 90.7694 45.8115 90.7694 45.9418C90.7694 46.7983 88.5337 48.789 87.3519 48.9848C87.0144 49.0408 86.6527 49.1394 86.5482 49.204C86.4191 49.2838 86.337 50.7078 86.2922 53.6464C86.2121 58.8938 86.1225 59.4649 84.6008 64.4285C83.187 69.0403 80.1184 73.9587 76.0858 78.0767C72.7503 81.4828 70.5618 83.0555 65.9998 85.3244C61.5155 87.5548 59.0569 88.4732 55.5106 89.2428C53.7152 89.6325 46.0441 89.7363 42.5966 89.4176ZM54.0663 86.502C57.6469 85.9581 62.3474 84.6223 63.114 83.9308C63.2771 83.7837 63.8355 83.4906 64.3548 83.2795C65.7548 82.7105 66.894 81.9793 69.8436 79.7567C73.433 77.052 76.9132 73.8544 78.3698 71.923C79.0116 71.072 79.7201 70.1464 79.9443 69.866C80.8791 68.6969 81.6877 67.4165 82.2234 66.2569C82.5369 65.5784 82.8318 65.0233 82.8787 65.0233C82.9256 65.0233 83.0303 65.1953 83.1114 65.4056C83.2539 65.7751 83.2627 65.7765 83.3752 65.4481C83.4392 65.2612 83.5995 64.8406 83.7314 64.5135C84.0988 63.6023 84.9547 59.8757 85.2435 57.9301C85.5098 56.136 85.581 51.5619 85.3618 50.325C85.2433 49.6562 85.2178 49.6358 83.7672 49.0506C82.1856 48.4126 80.8849 47.4001 80.5595 46.5536C80.0242 45.1616 80.0609 42.9932 80.6409 41.7399C80.7912 41.415 81.1788 40.7287 81.5022 40.2147C81.8256 39.7007 82.0932 39.1769 82.0968 39.0509C82.1082 38.656 80.3254 35.7832 79.0229 34.0975C76.5083 30.8428 73.8675 28.3925 70.8578 26.5209C64.9046 22.819 59.827 21.2004 52.0272 20.5182C50.2477 20.3625 46.5573 20.3987 46.2727 20.5746C46.2083 20.6144 45.3548 20.738 44.3761 20.8493C43.3973 20.9606 42.4436 21.1135 42.2567 21.1892C42.0698 21.2649 41.0375 21.5335 39.9628 21.786C35.8712 22.7474 34.8464 23.252 35.643 23.9132C35.9293 24.1508 36.7343 25.6426 36.7343 25.9356C36.7343 26.0321 36.6286 26.1111 36.4996 26.1111C36.255 26.1111 35.3749 25.0681 35.3749 24.7782C35.3749 24.6868 35.1316 24.4073 34.8342 24.1571C34.4296 23.8167 34.1746 23.7259 33.8213 23.7966C33.2701 23.9068 33.0594 23.6923 33.4227 23.3908C33.5618 23.2754 33.6757 23.0882 33.6757 22.975C33.6757 22.6574 31.3151 20.1905 29.6943 18.8145C28.4757 17.78 28.0254 17.5107 26.9219 17.1566C24.8807 16.5017 23.3188 16.7974 21.4575 18.1914C20.1016 19.2068 18.5084 22.1747 18.1177 24.413C17.7201 26.6903 17.9115 30.8207 18.5322 33.3597C18.8028 34.4664 19.1802 35.716 19.3709 36.1365C19.9195 37.3467 20.7635 39.5978 20.7625 39.8484C20.7614 40.1186 19.6591 38.8366 19.3069 38.1556C19.1724 37.8955 19.0624 37.5305 19.0624 37.3445C19.0624 36.0778 17.8889 37.4543 16.4706 40.3846C14.504 44.4477 13.3867 47.7598 12.7446 51.4295C12.445 53.1418 12.4523 58.7198 12.7566 60.6903C13.2121 63.6391 14.5613 67.8734 15.7616 70.1209C15.8863 70.3546 16.2531 71.0471 16.5765 71.66C16.9 72.2728 17.2857 72.8748 17.4338 72.9977C17.5819 73.1206 17.703 73.3174 17.703 73.435C17.703 73.7293 19.5012 76.1073 20.6435 77.3237C21.3313 78.0561 21.6618 78.2941 21.8767 78.2117C22.0742 78.1359 22.6205 78.3997 23.5475 79.0187C25.5943 80.3855 28.3662 81.9388 31.0419 83.2181C33.4185 84.3544 36.4982 85.5838 36.9683 85.5838C37.1052 85.5838 37.8541 85.7336 38.6325 85.9166C42.226 86.7618 50.3323 87.0692 54.0663 86.502ZM60.0499 70.5289C59.7428 70.3947 58.6575 70.2178 57.6381 70.1359C56.0067 70.0047 55.6665 69.9201 54.798 69.4292C52.9965 68.4108 51.7998 67.5246 50.3599 66.1421C47.211 63.1191 45.2721 59.8112 45.1365 57.2309C45.1035 56.6035 44.9765 56.0335 44.8335 55.8715C44.6981 55.7181 44.5313 55.1739 44.4628 54.6621C44.3943 54.1504 44.2402 53.5769 44.1202 53.3877C43.8548 52.969 43.9085 50.3494 44.1895 50.0109C44.2931 49.8861 44.3306 49.7367 44.2728 49.679C44.0907 49.4969 44.0421 48.5602 44.2094 48.4567C44.2975 48.4023 44.3239 48.1292 44.268 47.8498C44.1577 47.2983 44.5084 45.3585 44.7449 45.2124C44.825 45.1629 44.8905 44.9246 44.8905 44.6829C44.8905 44.0239 46.0529 41.7192 46.4359 41.6191C46.641 41.5654 46.7597 41.3847 46.7597 41.126C46.7597 40.3485 48.5037 37.9992 49.3372 37.654C49.6018 37.5444 49.8183 37.3531 49.8183 37.229C49.8183 36.9417 50.848 35.9684 51.1532 35.9674C51.2799 35.9669 51.526 35.7856 51.7 35.5644C52.4325 34.6332 55.671 33.0821 57.7816 32.6517C59.9997 32.1993 60.5233 32.1623 60.5233 32.4579C60.5233 32.8273 60.1453 32.995 58.5959 33.3131C57.863 33.4636 56.649 33.8529 55.8982 34.1783C55.1475 34.5036 54.2709 34.819 53.9503 34.8792C53.6146 34.9421 53.2582 35.155 53.1101 35.381C52.9687 35.5969 52.278 36.2063 51.5752 36.7352C49.9609 37.9503 49.1993 38.7364 48.0562 40.3678C46.7347 42.2537 45.5702 45.1145 45.5702 46.4753C45.5702 46.9055 45.2487 48.1626 45.0637 48.4559C44.8967 48.7206 45.0082 52.7057 45.2002 53.3329C45.2945 53.6412 45.4232 54.1992 45.4863 54.5731C45.9502 57.3248 48.4356 61.7239 50.6307 63.6787C52.4176 65.2699 55.173 66.7303 58.1444 67.6611C59.3722 68.0458 62.6607 68.0499 64.4315 67.6691C72.4871 65.9369 77.8391 60.0265 78.7056 51.9059C79.0361 48.8082 78.3589 44.95 77.0748 42.6146C76.6156 41.7796 76.5677 41.4052 76.8783 41.0792C77.0514 40.8974 77.023 40.8766 76.725 40.9664C76.4136 41.0603 76.1776 40.835 75.1376 39.4513C73.8891 37.7903 72.0847 36.1096 70.7186 35.3353C70.2981 35.097 69.6393 34.6854 69.2547 34.4207C68.1487 33.6594 65.9734 33.114 63.4934 32.9762C61.8779 32.8864 61.3196 32.7968 61.2502 32.616C61.0721 32.1518 61.4465 32.0553 62.7405 32.232C63.4369 32.3272 64.6567 32.4743 65.4511 32.5589C69.0594 32.9436 72.274 34.6343 75.2546 37.7152C76.0897 38.5785 77.0906 39.8195 77.4788 40.4729C78.3139 41.8786 79.5546 44.6779 79.5546 45.1565C79.5546 45.3419 79.7457 45.8708 79.9794 46.3319C80.213 46.7929 80.4042 47.3591 80.4042 47.5901C80.4042 47.821 80.5264 48.5309 80.6757 49.1675C80.8846 50.058 80.929 50.9129 80.8685 52.8738C80.7924 55.3358 80.7655 55.4914 80.0799 57.4385C79.6896 58.5472 79.1518 59.8869 78.8849 60.4156C77.8545 62.4567 74.2454 66.6391 72.3462 67.9929C71.0346 68.928 68.7442 69.8777 66.7498 70.3135C64.7193 70.7573 60.8567 70.8814 60.0499 70.5289ZM57.9745 65.9232C57.4168 65.7203 56.763 64.908 56.5034 64.0956C56.317 63.5125 56.214 62.4525 56.1806 60.7752L56.1316 58.3113L54.7984 58.0565C54.0652 57.9163 53.2516 57.6487 52.9905 57.4617C52.041 56.782 51.5175 56.3237 51.5175 56.1722C51.5175 56.0871 51.3701 55.87 51.1899 55.6898C51.0097 55.5096 50.8091 55.0077 50.7442 54.5745C50.5927 53.5644 50.9456 52.7476 51.9669 51.7449L52.7208 51.0047L54.1157 51.0084C54.8829 51.0104 56.2371 51.0903 57.1249 51.1859C58.0127 51.2816 59.2744 51.3182 59.9286 51.2672L61.1181 51.1746L61.0718 50.1551C61.0464 49.5944 60.9414 48.6538 60.8386 48.0651C60.6686 47.0922 60.6804 46.9734 60.9679 46.7632C61.1419 46.636 61.3578 46.5774 61.4477 46.6329C61.5432 46.692 61.5264 46.7622 61.4071 46.8019C61.1148 46.8994 61.1547 47.6834 61.4579 47.7997C61.7605 47.9158 61.7974 48.7281 61.5129 49.0126C61.3597 49.1658 61.3832 49.2901 61.6139 49.5449C61.8283 49.7819 61.8832 50.0209 61.805 50.377C61.6437 51.1113 62.0504 51.1694 63.2005 50.5762C63.7374 50.2994 64.8992 49.7595 65.7823 49.3766C66.6654 48.9937 67.6977 48.4737 68.0763 48.221C69.0987 47.5384 69.6279 47.3508 70.5142 47.3568C71.426 47.363 71.631 47.4933 72.3163 48.5024C72.7623 49.159 72.7924 49.2891 72.6309 49.8617C72.5327 50.21 72.3648 50.8715 72.2579 51.3317C72.0288 52.3176 71.2304 53.4619 69.964 54.6193C69.2464 55.2752 68.5287 55.6771 66.6054 56.5001C65.2601 57.0757 63.9568 57.5467 63.7091 57.5467C62.8936 57.5467 61.5212 57.9152 61.4275 58.1593C61.3769 58.2911 61.4519 58.5764 61.594 58.7934C61.9882 59.3949 62.0522 61.8792 61.6703 61.7527C61.541 61.7099 61.414 61.1965 61.3458 60.44C61.1537 58.3114 60.9358 57.7865 60.0347 57.2812C59.4843 56.9725 59.1728 56.888 58.9949 56.9992C58.8349 57.0991 58.6387 57.0939 58.4644 56.9851C58.2586 56.8565 58.0299 56.9101 57.5693 57.1947C56.8408 57.6449 56.6082 58.0225 56.5938 58.7775C56.5547 60.8308 56.5141 61.3947 56.392 61.5835C56.3061 61.7162 56.3513 61.8346 56.5112 61.896C56.6621 61.9538 56.8178 62.3217 56.8871 62.784C57.1193 64.3325 57.9051 65.4319 58.9152 65.6216C59.8686 65.8006 61.2009 64.5446 61.2024 63.4654C61.2032 62.8379 61.366 62.4744 61.646 62.4744C62.0396 62.4744 61.9247 63.5708 61.4241 64.5913C61.1049 65.2422 60.8002 65.6048 60.4214 65.7846C59.8955 66.0341 58.4971 66.1134 57.9745 65.9232ZM54.2324 55.7862C54.2304 55.6797 54.0791 55.7838 53.8964 56.0174C53.462 56.5727 53.4671 56.9029 53.902 56.3809C54.0858 56.1603 54.2345 55.8926 54.2324 55.7862ZM62.1376 56.3572C62.1953 56.2638 62.1616 56.1873 62.0627 56.1873C61.9637 56.1873 61.8827 56.2638 61.8827 56.3572C61.8827 56.4507 61.9164 56.5272 61.9576 56.5272C61.9989 56.5272 62.0798 56.4507 62.1376 56.3572ZM55.3869 55.752C55.3299 55.6951 55.1917 55.827 55.0797 56.0453C54.8852 56.4247 54.8897 56.4293 55.1833 56.1489C55.3522 55.9876 55.4438 55.809 55.3869 55.752ZM56.512 56.0885C56.6715 55.6728 56.6369 55.6179 56.3602 55.8475C56.0778 56.0819 56.0221 56.3572 56.2571 56.3572C56.3406 56.3572 56.4553 56.2363 56.512 56.0885ZM57.7783 55.9413C57.8159 55.7476 57.7546 55.6659 57.6084 55.7146C57.4827 55.7564 57.3534 55.927 57.3211 56.0935C57.2835 56.2872 57.3448 56.3689 57.491 56.3203C57.6167 56.2784 57.746 56.1078 57.7783 55.9413ZM63.9219 55.2523C64.0411 54.8266 64.095 54.4348 64.0417 54.3815C63.9885 54.3282 63.825 54.6884 63.6784 55.1819C63.3677 56.2282 63.3668 56.2353 63.5586 56.1168C63.6393 56.0669 63.8027 55.6779 63.9219 55.2523ZM53.1327 55.6765C53.587 55.1745 53.3438 55.0956 52.8762 55.5933C52.6571 55.8265 52.5557 56.0174 52.651 56.0174C52.7462 56.0174 52.963 55.864 53.1327 55.6765ZM65.2811 55.3477C65.2811 54.9204 65.0069 54.7519 64.8741 55.0977C64.7114 55.5219 64.7522 55.6776 65.0263 55.6776C65.1664 55.6776 65.2811 55.5291 65.2811 55.3477ZM52.5514 54.7801C52.6995 54.5728 52.9642 54.1815 53.1398 53.9105L53.4589 53.4179L53.0981 53.611C52.7726 53.7852 52.0272 54.7941 52.0272 55.0604C52.0272 55.2845 52.2924 55.1427 52.5514 54.7801ZM58.8319 54.3036C58.9362 54.1087 58.9862 53.9139 58.9431 53.8707C58.8407 53.7684 58.3143 54.2954 58.3143 54.5002C58.3143 54.7873 58.639 54.664 58.8319 54.3036ZM54.3936 54.2483C54.5444 54.0667 54.5448 53.9791 54.3954 53.8867C54.2126 53.7738 53.905 54.0675 53.899 54.3607C53.8947 54.5701 54.1804 54.5052 54.3936 54.2483ZM64.9245 52.8842C65.1873 52.7218 65.1574 52.2791 64.8836 52.2791C64.5957 52.2791 64.2596 53.003 64.2683 53.604L64.2749 54.0633L64.5064 53.5315C64.6337 53.2389 64.8218 52.9477 64.9245 52.8842ZM61.9758 53.1129C62.1253 52.8239 62.2094 52.5492 62.1626 52.5024C62.0841 52.4239 61.5429 53.3344 61.5429 53.5451C61.5429 53.7781 61.7268 53.5946 61.9758 53.1129ZM60.7782 52.7747C60.7782 52.6414 60.5887 52.517 60.3534 52.496C60.1198 52.4751 60.0242 52.5006 60.141 52.5526C60.2578 52.6047 60.3534 52.762 60.3534 52.9022C60.3534 53.0424 60.449 53.1252 60.5658 53.0863C60.6826 53.0473 60.7782 52.9071 60.7782 52.7747ZM57.4647 52.2791C57.4647 52.1857 57.431 52.1092 57.3898 52.1092C57.3486 52.1092 57.2676 52.1857 57.2099 52.2791C57.1521 52.3726 57.1858 52.449 57.2848 52.449C57.3838 52.449 57.4647 52.3726 57.4647 52.2791ZM68.2984 51.8413C68.1312 51.6741 67.83 51.9308 67.83 52.2406C67.83 52.5 67.8523 52.4995 68.1172 52.2346C68.2752 52.0766 68.3568 51.8997 68.2984 51.8413ZM72.078 48.9556C72.078 48.473 72.0151 48.3709 71.7174 48.3709C71.4209 48.3709 71.3933 48.4149 71.5621 48.6184C71.675 48.7545 71.7158 48.9493 71.6528 49.0513C71.4952 49.3063 71.696 49.7764 71.9069 49.6461C72.001 49.5879 72.078 49.2772 72.078 48.9556ZM30.0645 63.0816C29.1647 62.7605 28.3609 62.1044 27.3174 60.8393C26.4579 59.7972 26.4099 59.6869 26.3084 58.5185C26.1811 57.0543 26.5005 55.3422 27.1478 54.0193C27.4668 53.3672 27.909 52.8635 28.7554 52.1882C29.3975 51.6759 30.1364 51.173 30.3974 51.0707C31.1466 50.777 34.3959 50.6694 35.2546 50.9099C36.013 51.1222 38.0936 52.791 38.0936 53.187C38.0936 53.2975 38.2576 53.4635 38.458 53.5557C39.3627 53.9722 39.7873 56.9666 39.198 58.7746C38.7043 60.2892 38.397 60.7798 37.3458 61.731C36.2623 62.7115 35.8121 62.8927 33.8163 63.1519C32.0996 63.3748 30.8188 63.3508 30.0645 63.0816ZM35.3372 62.1715C37.0877 61.5535 38.931 58.4674 38.6069 56.6971C38.3606 55.3516 37.6355 53.6075 37.1658 53.231C36.9209 53.0345 36.628 52.6876 36.515 52.46C36.2139 51.8537 34.9027 51.4443 33.2509 51.4407C31.4556 51.4369 30.5616 51.6618 29.7324 52.3259C28.4306 53.3686 27.7505 54.6698 27.3084 56.9638C26.8729 59.2229 27.5615 60.6777 29.8359 62.3045C30.5992 62.8504 33.6209 62.7774 35.3372 62.1715ZM58.7599 59.2756C58.6847 59.0583 58.6684 58.8352 58.7236 58.78C58.8998 58.6038 59.0236 58.8636 58.959 59.2738L58.8966 59.6707L58.7599 59.2756ZM60.5233 45.9299C60.5233 45.6959 60.4528 45.3187 60.3665 45.0919C60.2183 44.7022 60.1171 44.6748 58.5398 44.5982C56.7349 44.5106 55.9621 44.2411 55.5019 43.5387C54.2803 41.6743 58.4618 38.8072 62.029 39.0632C64.0523 39.2085 65.2535 40.1214 65.0524 41.3609C64.8605 42.5437 63.562 43.737 61.9602 44.2027C61.0141 44.4777 61.0103 44.4815 61.1346 45.0231C61.3586 45.9981 61.3147 46.2431 60.9057 46.3012C60.5965 46.3451 60.5233 46.2741 60.5233 45.9299ZM61.9562 43.7111C62.9733 43.2135 64.0225 42.1638 64.1967 41.4695C64.3925 40.6895 64.0808 40.1718 63.1941 39.8043L62.3864 39.4696L60.7327 39.8621C58.7577 40.3309 57.6859 40.8713 56.7785 41.8557C56.0097 42.6898 55.945 43.0688 56.4877 43.5603C57.2517 44.2522 57.4929 44.3101 59.2951 44.2334C60.7407 44.1719 61.1979 44.0821 61.9562 43.7111ZM35.7147 45.7747C35.0127 45.424 34.6609 44.5368 34.7571 43.3599C34.8282 42.4905 34.9169 42.2736 35.3652 41.8731C35.8826 41.4107 36.747 41.2491 37.1778 41.5342C37.5473 41.7786 37.9296 42.7699 38.0319 43.7488C38.1306 44.6932 38.1085 44.7738 37.5874 45.3674C36.9957 46.0413 36.4749 46.1546 35.7147 45.7747ZM23.3983 37.9368C22.725 36.8842 22.2473 35.5911 21.9487 34.0125C21.8426 33.4518 21.6777 32.7213 21.5824 32.3891C21.3831 31.6954 21.4463 30.9287 21.6962 31.0075C21.7896 31.037 21.8422 31.177 21.813 31.3186C21.7839 31.4601 21.8794 31.7583 22.0254 31.9811C22.1833 32.2221 22.2909 32.7582 22.2909 33.3039C22.2909 33.9386 22.3881 34.3465 22.606 34.6268C22.7794 34.8497 23.0177 35.3379 23.1356 35.7117C23.2535 36.0856 23.5781 36.877 23.8569 37.4706C24.2042 38.2101 24.3087 38.6047 24.1889 38.7245C24.0691 38.8443 23.8203 38.5964 23.3983 37.9368ZM25.7832 38.1182C25.6034 37.9867 25.5102 37.7386 25.5458 37.4864C25.6042 37.0723 25.6055 37.0727 25.9898 37.6114C26.3987 38.1847 26.2783 38.4802 25.7832 38.1182ZM27.1587 37.1837C26.8947 36.892 26.4538 34.9756 26.6138 34.8156C26.651 34.7784 26.7754 34.9267 26.8903 35.1449C27.0052 35.3632 27.2831 35.7628 27.5078 36.0328C28.1709 36.8297 27.8363 37.9325 27.1587 37.1837ZM74.5249 35.219C74.0161 34.7102 73.9472 34.5358 73.9472 33.7584C73.9472 32.7814 74.295 32.0326 74.899 31.7093C75.3995 31.4414 75.6808 31.5636 76.2342 32.2891C76.5437 32.6949 76.7178 33.1733 76.7819 33.7939C76.8658 34.607 76.827 34.7616 76.4159 35.2502C75.8089 35.9715 75.2685 35.9626 74.5249 35.219ZM29.0292 35.1461C28.722 34.8067 28.654 34.1756 28.9077 34.0188C29.1505 33.8687 29.7675 34.6189 29.7675 35.0641C29.7675 35.5354 29.4167 35.5744 29.0292 35.1461ZM30.8841 33.1508C30.5794 32.8461 30.5445 32.4296 30.7927 32.0584C30.9366 31.8431 31.0285 31.8776 31.3848 32.2803C31.8973 32.8596 31.9434 33.4178 31.4788 33.4178C31.2986 33.4178 31.031 33.2976 30.8841 33.1508ZM32.4109 31.8507C32.1121 31.4241 32.0739 30.9065 32.3133 30.5291C32.4527 30.3094 32.5235 30.3226 32.8259 30.6242C33.0189 30.8167 33.2226 31.2564 33.2785 31.6013C33.3684 32.1552 33.3392 32.2283 33.0279 32.2283C32.834 32.2283 32.5564 32.0584 32.4109 31.8507ZM21.664 30.1758C21.7295 29.9254 21.6683 29.6665 21.4997 29.4802C21.3116 29.2724 21.2681 29.0413 21.3544 28.7093C21.4222 28.4485 21.5003 27.7156 21.528 27.0805C21.5991 25.452 22.1888 24.3572 23.7453 22.9642C25.1146 21.7386 25.5474 21.5233 26.6406 21.5233C28.1208 21.5233 29.6218 22.6772 31.8345 25.5164C33.2388 27.3184 33.8406 28.2527 33.9503 28.8013C34.0694 29.3969 33.7515 29.679 33.58 29.1297C33.514 28.9181 33.4117 28.7067 33.3528 28.66C33.2939 28.6132 32.9909 28.078 32.6794 27.4705C32.3679 26.8631 31.9772 26.2131 31.8111 26.0262C31.645 25.8393 31.4205 25.5143 31.312 25.304C31.1797 25.0474 30.9606 24.9217 30.6456 24.9217C30.3194 24.9217 29.9715 24.7101 29.5046 24.2276C28.6754 23.3707 27.9014 22.9604 26.7043 22.7428C25.6599 22.5529 25.0081 22.7866 23.9219 23.7403C22.6481 24.8587 22.1498 26.2305 22.0779 28.8162C22.0449 30.0037 21.9723 30.4371 21.7966 30.4957C21.6215 30.554 21.5869 30.4705 21.664 30.1758ZM31.9765 30.0194C31.9765 29.9259 32.0529 29.8494 32.1464 29.8494C32.2398 29.8494 32.3163 29.9259 32.3163 30.0194C32.3163 30.1128 32.2398 30.1893 32.1464 30.1893C32.0529 30.1893 31.9765 30.1128 31.9765 30.0194ZM22.5112 78.8772C22.3433 78.6465 22.1353 78.4554 22.0489 78.4524C21.9625 78.4495 22.0714 78.6383 22.2909 78.8719C22.8003 79.4142 22.9039 79.4167 22.5112 78.8772ZM82.3348 67.9969C82.3886 67.8567 82.3585 67.742 82.268 67.742C82.1775 67.742 82.1034 67.8567 82.1034 67.9969C82.1034 68.1371 82.1335 68.2518 82.1702 68.2518C82.2069 68.2518 82.281 68.1371 82.3348 67.9969ZM73.6196 26.598C73.769 26.3187 73.8459 26.2872 73.9535 26.4612C74.0666 26.6442 74.2066 26.6262 74.6884 26.3667C75.1948 26.094 75.3528 26.0777 75.747 26.2573C76.1078 26.4217 76.2383 26.423 76.337 26.2633C76.6162 25.8116 77.3981 20.6536 77.339 19.6541C77.3307 19.5139 77.3319 19.0251 77.3418 18.5679C77.3638 17.5448 77.1059 16.2297 76.5552 14.5565C76.193 13.456 76.0038 13.16 75.1689 12.3879C74.0611 11.3635 73.5011 11.1603 71.7825 11.159C70.3151 11.1578 69.3612 11.4836 67.5786 12.5946C66.2403 13.4288 63.4271 16.226 62.5389 17.6058C61.8688 18.6468 61.909 18.9891 62.7464 19.3754C63.1231 19.5492 63.4528 19.6639 63.4791 19.6303C63.5053 19.5967 63.8023 19.1486 64.1392 18.6346C65.2451 16.9471 67.6813 14.8846 69.048 14.4788C70.8991 13.929 72.8077 14.2956 74.0483 15.4391C74.4599 15.8186 74.7968 16.2753 74.7968 16.4541C74.7968 16.6329 74.9511 16.988 75.1398 17.2432C75.5892 17.8511 75.8715 19.613 75.7549 21.0823C75.6555 22.3347 75.4492 22.7534 75.1025 22.4067C74.9438 22.248 74.95 22.0613 75.1306 21.5656C75.4122 20.7924 75.372 19.4989 75.0553 19.1468C74.9281 19.0053 74.6231 18.3546 74.3775 17.7009C73.6756 15.8323 72.7138 15.0662 71.0696 15.0662C69.071 15.0662 66.1117 17.3544 64.3691 20.2471C64.039 20.7951 63.8101 21.3101 63.8604 21.3915C63.9108 21.473 64.8073 21.9431 65.8528 22.4362C68.2954 23.5884 69.7711 24.4549 71.6549 25.8432C72.4889 26.4579 73.2284 26.9608 73.2983 26.9608C73.3682 26.9608 73.5128 26.7975 73.6196 26.598ZM74.319 24.6263C74.4043 24.1833 74.9667 24.1339 74.9667 24.5694C74.9667 24.8126 74.8576 24.9217 74.6144 24.9217C74.3712 24.9217 74.2797 24.8302 74.319 24.6263ZM90.7108 40.7535C90.5561 40.5826 90.4295 40.2959 90.4295 40.1163C90.4294 39.7906 89.1796 38.596 88.4083 38.1845C88.1287 38.0353 87.4929 37.9895 86.3768 38.0384C84.8671 38.1044 84.7929 38.0928 85.327 37.8749C85.7495 37.7025 86.2748 37.6714 87.3097 37.7576C88.5078 37.8574 88.8498 37.9601 89.6051 38.4467C91.0868 39.4013 91.9545 40.5773 91.4248 40.913C91.0989 41.1194 91.0275 41.1035 90.7108 40.7535Z" fill="#AD9686"/>
</svg>
